<svg width="17" height="17" viewBox="0 0 17 17" fill="none" xmlns="http://www.w3.org/2000/svg">
<path d="M2.55 8.5H1.7V15.3C1.7 15.7509 1.87911 16.1833 2.19792 16.5021C2.51673 16.8209 2.94913 17 3.4 17H7.65V8.5H2.55ZM13.6 8.5H9.35V17H13.6C14.0509 17 14.4833 16.8209 14.8021 16.5021C15.1209 16.1833 15.3 15.7509 15.3 15.3V8.5H13.6ZM14.2723 4.25C14.397 3.83672 14.4569 3.40662 14.45 2.975C14.45 1.3345 13.1155 0 11.475 0C10.0963 0 9.17575 1.2597 8.5816 2.62225C7.99595 1.3345 7.02865 0 5.525 0C3.8845 0 2.55 1.3345 2.55 2.975C2.55 3.4816 2.61715 3.90065 2.72765 4.25H0V7.65H7.65V5.95H9.35V7.65H17V4.25H14.2723ZM4.25 2.975C4.25 2.27205 4.82205 1.7 5.525 1.7C6.2798 1.7 6.9819 2.99625 7.3933 4.25H5.1C4.7821 4.25 4.25 4.25 4.25 2.975ZM11.475 1.7C12.1779 1.7 12.75 2.27205 12.75 2.975C12.75 4.25 12.2179 4.25 11.9 4.25H9.79455C10.228 2.9104 10.8579 1.7 11.475 1.7Z" fill="white"/>
</svg>
