<svg width="28" height="28" viewBox="0 0 28 28" fill="none" xmlns="http://www.w3.org/2000/svg">
<path fill-rule="evenodd" clip-rule="evenodd" d="M7.5662 21.4997C12.3577 20.7997 15.6568 20.8599 20.4546 21.5242C20.8021 21.5746 21.1196 21.749 21.3484 22.0152C21.5773 22.2814 21.7022 22.6214 21.6999 22.9725C21.6999 23.3085 21.5844 23.6347 21.3758 23.8895C21.0122 24.3337 20.6398 24.7706 20.2586 25.1999H22.1073C22.2235 25.0613 22.3404 24.9199 22.4587 24.7764C22.8739 24.2672 23.1004 23.6302 23.0999 22.9732C23.0999 21.5557 22.0653 20.3342 20.6464 20.1382C15.7352 19.4585 12.3024 19.3934 7.3639 20.1151C5.9303 20.3244 4.8999 21.5648 4.8999 22.9921C4.8999 23.6256 5.1064 24.2521 5.4977 24.7596C5.6132 24.9094 5.7273 25.0564 5.8407 25.2006H7.6446C7.29 24.7761 6.94413 24.3443 6.6072 23.9056C6.40698 23.643 6.29896 23.3216 6.2999 22.9914C6.2999 22.2375 6.8417 21.6054 7.5662 21.4997ZM13.9999 14.6999C14.5515 14.6999 15.0976 14.5913 15.6072 14.3802C16.1167 14.1691 16.5797 13.8598 16.9698 13.4698C17.3598 13.0797 17.6691 12.6167 17.8802 12.1072C18.0913 11.5976 18.1999 11.0515 18.1999 10.4999C18.1999 9.94835 18.0913 9.4022 17.8802 8.89263C17.6691 8.38306 17.3598 7.92006 16.9698 7.53005C16.5797 7.14005 16.1167 6.83068 15.6072 6.61961C15.0976 6.40854 14.5515 6.2999 13.9999 6.2999C12.886 6.2999 11.8177 6.7424 11.0301 7.53005C10.2424 8.31771 9.7999 9.38599 9.7999 10.4999C9.7999 11.6138 10.2424 12.6821 11.0301 13.4698C11.8177 14.2574 12.886 14.6999 13.9999 14.6999ZM13.9999 16.0999C15.4851 16.0999 16.9095 15.5099 17.9597 14.4597C19.0099 13.4095 19.5999 11.9851 19.5999 10.4999C19.5999 9.01469 19.0099 7.59031 17.9597 6.5401C16.9095 5.4899 15.4851 4.8999 13.9999 4.8999C12.5147 4.8999 11.0903 5.4899 10.0401 6.5401C8.9899 7.59031 8.3999 9.01469 8.3999 10.4999C8.3999 11.9851 8.9899 13.4095 10.0401 14.4597C11.0903 15.5099 12.5147 16.0999 13.9999 16.0999Z" fill="#919699"/>
<path fill-rule="evenodd" clip-rule="evenodd" d="M14 26.6C20.9587 26.6 26.6 20.9587 26.6 14C26.6 7.0413 20.9587 1.4 14 1.4C7.0413 1.4 1.4 7.0413 1.4 14C1.4 20.9587 7.0413 26.6 14 26.6ZM14 28C21.7322 28 28 21.7322 28 14C28 6.2678 21.7322 0 14 0C6.2678 0 0 6.2678 0 14C0 21.7322 6.2678 28 14 28Z" fill="#919699"/>
</svg>
