<svg width="15" height="9" viewBox="0 0 15 9" fill="none" xmlns="http://www.w3.org/2000/svg">
<path d="M0 0H14.6834V8.99948H0V0Z" fill="white"/>
<path d="M0 0H14.6834V1.18414H0V0ZM0 2.13146H14.6834V3.07877H0V2.13146ZM0 4.02609H14.6834V4.9734H0V4.02609Z" fill="#D22F27"/>
<path d="M0 0H7.57851V4.9734H0V0Z" fill="#1E50A0"/>
<path d="M0 5.92084H14.6834V6.86816H0V5.92084Z" fill="#D22F27"/>
<path d="M1.065 1.59819C1.2939 1.59819 1.47945 1.41263 1.47945 1.18374C1.47945 0.954846 1.2939 0.76929 1.065 0.76929C0.83611 0.76929 0.650554 0.954846 0.650554 1.18374C0.650554 1.41263 0.83611 1.59819 1.065 1.59819Z" fill="white"/>
<path d="M2.96079 1.59819C3.18969 1.59819 3.37524 1.41263 3.37524 1.18374C3.37524 0.954846 3.18969 0.76929 2.96079 0.76929C2.7319 0.76929 2.54634 0.954846 2.54634 1.18374C2.54634 1.41263 2.7319 1.59819 2.96079 1.59819Z" fill="white"/>
<path d="M4.85558 1.59819C5.08448 1.59819 5.27003 1.41263 5.27003 1.18374C5.27003 0.954846 5.08448 0.76929 4.85558 0.76929C4.62669 0.76929 4.44113 0.954846 4.44113 1.18374C4.44113 1.41263 4.62669 1.59819 4.85558 1.59819Z" fill="white"/>
<path d="M6.74837 1.59819C6.97727 1.59819 7.16282 1.41263 7.16282 1.18374C7.16282 0.954846 6.97727 0.76929 6.74837 0.76929C6.51948 0.76929 6.33392 0.954846 6.33392 1.18374C6.33392 1.41263 6.51948 1.59819 6.74837 1.59819Z" fill="white"/>
<path d="M5.80248 2.54608C6.03137 2.54608 6.21693 2.36053 6.21693 2.13163C6.21693 1.90274 6.03137 1.71718 5.80248 1.71718C5.57358 1.71718 5.38803 1.90274 5.38803 2.13163C5.38803 2.36053 5.57358 2.54608 5.80248 2.54608Z" fill="white"/>
<path d="M3.90669 2.54608C4.13558 2.54608 4.32114 2.36053 4.32114 2.13163C4.32114 1.90274 4.13558 1.71718 3.90669 1.71718C3.6778 1.71718 3.49224 1.90274 3.49224 2.13163C3.49224 2.36053 3.6778 2.54608 3.90669 2.54608Z" fill="white"/>
<path d="M2.0139 2.54608C2.24279 2.54608 2.42835 2.36053 2.42835 2.13163C2.42835 1.90274 2.24279 1.71718 2.0139 1.71718C1.785 1.71718 1.59945 1.90274 1.59945 2.13163C1.59945 2.36053 1.785 2.54608 2.0139 2.54608Z" fill="white"/>
<path d="M1.065 3.49298C1.2939 3.49298 1.47945 3.30742 1.47945 3.07853C1.47945 2.84964 1.2939 2.66408 1.065 2.66408C0.83611 2.66408 0.650554 2.84964 0.650554 3.07853C0.650554 3.30742 0.83611 3.49298 1.065 3.49298Z" fill="white"/>
<path d="M2.96079 3.49298C3.18969 3.49298 3.37524 3.30742 3.37524 3.07853C3.37524 2.84964 3.18969 2.66408 2.96079 2.66408C2.7319 2.66408 2.54634 2.84964 2.54634 3.07853C2.54634 3.30742 2.7319 3.49298 2.96079 3.49298Z" fill="white"/>
<path d="M4.85558 3.49298C5.08448 3.49298 5.27003 3.30742 5.27003 3.07853C5.27003 2.84964 5.08448 2.66408 4.85558 2.66408C4.62669 2.66408 4.44113 2.84964 4.44113 3.07853C4.44113 3.30742 4.62669 3.49298 4.85558 3.49298Z" fill="white"/>
<path d="M6.74837 3.49298C6.97727 3.49298 7.16282 3.30742 7.16282 3.07853C7.16282 2.84964 6.97727 2.66408 6.74837 2.66408C6.51948 2.66408 6.33392 2.84964 6.33392 3.07853C6.33392 3.30742 6.51948 3.49298 6.74837 3.49298Z" fill="white"/>
<path d="M5.80248 4.44087C6.03137 4.44087 6.21693 4.25532 6.21693 4.02642C6.21693 3.79753 6.03137 3.61197 5.80248 3.61197C5.57358 3.61197 5.38803 3.79753 5.38803 4.02642C5.38803 4.25532 5.57358 4.44087 5.80248 4.44087Z" fill="white"/>
<path d="M3.90669 4.44087C4.13558 4.44087 4.32114 4.25532 4.32114 4.02642C4.32114 3.79753 4.13558 3.61197 3.90669 3.61197C3.6778 3.61197 3.49224 3.79753 3.49224 4.02642C3.49224 4.25532 3.6778 4.44087 3.90669 4.44087Z" fill="white"/>
<path d="M2.0139 4.44087C2.24279 4.44087 2.42835 4.25532 2.42835 4.02642C2.42835 3.79753 2.24279 3.61197 2.0139 3.61197C1.785 3.61197 1.59945 3.79753 1.59945 4.02642C1.59945 4.25532 1.785 4.44087 2.0139 4.44087Z" fill="white"/>
<path d="M0 7.81563H14.6834V8.99977H0V7.81563Z" fill="#D22F27"/>
</svg>
