<svg width="34" height="34" viewBox="0 0 34 34" fill="none" xmlns="http://www.w3.org/2000/svg">
<path d="M16.8775 0C8.24616 0 8.78508 3.74305 8.78508 3.74305L8.79467 7.62096H17.0314V8.78521H5.52318C5.52318 8.78521 0 8.15882 0 16.8677C0 25.5769 4.82076 25.2681 4.82076 25.2681H7.69778V21.2267C7.69778 21.2267 7.54268 16.4059 12.4416 16.4059H20.6109C20.6109 16.4059 25.2007 16.4801 25.2007 11.97V4.51296C25.2007 4.51296 25.8978 0 16.8775 0ZM12.3358 2.60782C12.5304 2.60764 12.7232 2.64585 12.903 2.72026C13.0829 2.79466 13.2463 2.9038 13.3839 3.04143C13.5215 3.17906 13.6307 3.34248 13.7051 3.52234C13.7795 3.70219 13.8177 3.89496 13.8175 4.08959C13.8177 4.28423 13.7795 4.477 13.7051 4.65685C13.6307 4.83671 13.5215 5.00013 13.3839 5.13776C13.2463 5.27539 13.0829 5.38453 12.903 5.45893C12.7232 5.53334 12.5304 5.57155 12.3358 5.57137C12.1411 5.57155 11.9483 5.53334 11.7685 5.45893C11.5886 5.38453 11.4252 5.27539 11.2876 5.13776C11.15 5.00013 11.0408 4.83671 10.9664 4.65685C10.892 4.477 10.8538 4.28423 10.854 4.08959C10.8538 3.89496 10.892 3.70219 10.9664 3.52234C11.0408 3.34248 11.15 3.17906 11.2876 3.04143C11.4252 2.9038 11.5886 2.79466 11.7685 2.72026C11.9483 2.64585 12.1411 2.60764 12.3358 2.60782Z" fill="white"/>
<path d="M17.123 33.8231C25.7543 33.8231 25.2154 30.0801 25.2154 30.0801L25.2058 26.2023H16.9689V25.0381H28.4771C28.4771 25.0381 34.0003 25.6644 34.0003 16.9553C34.0003 8.2462 29.1795 8.55507 29.1795 8.55507H26.3025V12.5963C26.3025 12.5963 26.4576 17.4171 21.5587 17.4171H13.3894C13.3894 17.4171 8.7996 17.3429 8.7996 21.8531V29.3103C8.7996 29.3103 8.10264 33.8231 17.1228 33.8231H17.123ZM21.6647 31.2156C21.47 31.2158 21.2773 31.1776 21.0974 31.1031C20.9176 31.0287 20.7542 30.9196 20.6165 30.782C20.4789 30.6443 20.3697 30.4809 20.2953 30.3011C20.2209 30.1212 20.1827 29.9284 20.1829 29.7338C20.1827 29.5392 20.2209 29.3464 20.2953 29.1665C20.3697 28.9866 20.4788 28.8232 20.6165 28.6856C20.7541 28.5479 20.9175 28.4388 21.0974 28.3643C21.2773 28.2899 21.47 28.2517 21.6647 28.2519C21.8593 28.2517 22.0521 28.2899 22.2319 28.3643C22.4118 28.4387 22.5752 28.5479 22.7128 28.6855C22.8505 28.8231 22.9596 28.9866 23.034 29.1664C23.1084 29.3463 23.1466 29.539 23.1465 29.7337C23.1466 29.9283 23.1084 30.1211 23.034 30.3009C22.9596 30.4808 22.8505 30.6442 22.7128 30.7818C22.5752 30.9195 22.4118 31.0286 22.2319 31.103C22.0521 31.1774 21.8593 31.2158 21.6647 31.2156Z" fill="white"/>
</svg>
