<svg width="27" height="31" viewBox="0 0 27 31" fill="none" xmlns="http://www.w3.org/2000/svg">
<path d="M26.6921 24.5906C25.8184 23.7793 25.0534 22.8491 24.4179 21.8253C23.7241 20.412 23.3082 18.8686 23.1947 17.2856V12.6233C23.2007 10.1369 22.3349 7.73391 20.76 5.86567C19.185 3.99742 17.0093 2.79256 14.6417 2.47746V1.25997C14.6417 0.925804 14.5142 0.605326 14.2874 0.369036C14.0606 0.132746 13.7529 0 13.4321 0C13.1113 0 12.8037 0.132746 12.5768 0.369036C12.35 0.605326 12.2225 0.925804 12.2225 1.25997V2.49634C9.87612 2.83415 7.72672 4.0463 6.17245 5.90826C4.61819 7.77023 3.76437 10.1559 3.76914 12.6233V17.2856C3.65567 18.8686 3.23981 20.412 2.54599 21.8253C1.92161 22.8468 1.16897 23.7768 0.308055 24.5906C0.211409 24.6791 0.133951 24.7879 0.0808349 24.91C0.0277191 25.032 0.000162903 25.1645 0 25.2985V26.582C0 26.8323 0.0954579 27.0724 0.265374 27.2494C0.43529 27.4264 0.665747 27.5258 0.906045 27.5258H26.0941C26.3344 27.5258 26.5648 27.4264 26.7347 27.2494C26.9047 27.0724 27.0001 26.8323 27.0001 26.582V25.2985C27 25.1645 26.9724 25.032 26.9193 24.91C26.8662 24.7879 26.7887 24.6791 26.6921 24.5906ZM1.88457 25.6382C2.72756 24.7899 3.46979 23.8393 4.09532 22.8068C4.9693 21.1 5.47924 19.2167 5.59029 17.2856V12.6233C5.55436 11.5172 5.73247 10.4149 6.11403 9.38196C6.49558 8.34907 7.07277 7.40671 7.81123 6.61101C8.54969 5.81531 9.43432 5.18254 10.4124 4.75038C11.3905 4.31823 12.4421 4.09552 13.5046 4.09552C14.5671 4.09552 15.6186 4.31823 16.5968 4.75038C17.5749 5.18254 18.4595 5.81531 19.198 6.61101C19.9364 7.40671 20.5136 8.34907 20.8952 9.38196C21.2767 10.4149 21.4548 11.5172 21.4189 12.6233V17.2856C21.5299 19.2167 22.0399 21.1 22.9139 22.8068C23.5394 23.8393 24.2816 24.7899 25.1246 25.6382H1.88457Z" fill="#919699"/>
<path d="M13.5454 30.6783C14.1162 30.6646 14.6639 30.4411 15.0917 30.0473C15.5195 29.6535 15.7998 29.1148 15.883 28.5265H11.1172C11.2028 29.1308 11.4963 29.6821 11.9429 30.078C12.3896 30.4738 12.9591 30.6871 13.5454 30.6783Z" fill="#919699"/>
</svg>
