<svg width="11" height="12" viewBox="0 0 11 12" fill="none" xmlns="http://www.w3.org/2000/svg">
<path d="M7.71343 6.42852L8.66914 8.27993L10.7134 8.57136L9.21342 9.92863L9.85627 11.9999L7.71343 10.8033L5.57059 11.9999L6.21344 9.92863L4.71345 8.57136L6.81344 8.27993L7.71343 6.42852Z" fill="#5E6366"/>
<path d="M8.57136 1.2857H7.28565V0.857136C7.28498 0.630018 7.19445 0.412396 7.03386 0.251799C6.87326 0.0912013 6.65564 0.000678306 6.42852 0H2.99998C2.77286 0.000678306 2.55524 0.0912013 2.39464 0.251799C2.23404 0.412396 2.14352 0.630018 2.14284 0.857136V1.2857H0.857136C0.630018 1.28638 0.412396 1.37691 0.251799 1.5375C0.0912013 1.6981 0.000678306 1.91572 0 2.14284V11.1428C0.000678306 11.3699 0.0912013 11.5875 0.251799 11.7481C0.412396 11.9087 0.630018 11.9992 0.857136 11.9999H3.85711V11.1428H0.857136V2.14284H2.14284V3.42854H7.28565V2.14284H8.57136V5.14281H9.42849V2.14284C9.42782 1.91572 9.33729 1.6981 9.1767 1.5375C9.0161 1.37691 8.79848 1.28638 8.57136 1.2857ZM6.42852 2.57141H2.99998V0.857136H6.42852V2.57141Z" fill="#5E6366"/>
</svg>
