<svg width="21" height="22" viewBox="0 0 21 22" fill="none" xmlns="http://www.w3.org/2000/svg">
<path d="M21.0001 11.244C21.0001 10.3396 20.9286 9.67955 20.7739 8.99512H10.7144V13.0773H16.6191C16.5001 14.0918 15.8572 15.6196 14.4286 16.6462L14.4086 16.7828L17.5892 19.3125L17.8096 19.3351C19.8334 17.4162 21.0001 14.5929 21.0001 11.244Z" fill="#4285F4"/>
<path d="M10.7143 22.0002C13.6071 22.0002 16.0356 21.0224 17.8095 19.3358L14.4285 16.6468C13.5238 17.2946 12.3095 17.7468 10.7143 17.7468C7.88096 17.7468 5.47622 15.828 4.61899 13.1758L4.49335 13.1867L1.18607 15.8145L1.14282 15.938C2.90471 19.5313 6.52377 22.0002 10.7143 22.0002Z" fill="#34A853"/>
<path d="M4.619 13.1757C4.39282 12.4912 4.26191 11.7579 4.26191 11.0001C4.26191 10.2423 4.39282 9.50899 4.6071 8.82455L4.60111 8.67879L1.25239 6.00879L1.14283 6.06229C0.416671 7.55342 0 9.2279 0 11.0001C0 12.7723 0.416671 14.4467 1.14283 15.9379L4.619 13.1757Z" fill="#FBBC05"/>
<path d="M10.7143 4.25331C12.7262 4.25331 14.0833 5.14552 14.8571 5.89113L17.8809 2.86C16.0238 1.08778 13.6071 0 10.7143 0C6.52377 0 2.90471 2.46887 1.14282 6.06218L4.60709 8.82444C5.47622 6.17222 7.88096 4.25331 10.7143 4.25331Z" fill="#EB4335"/>
</svg>
