<svg width="12" height="12" viewBox="0 0 12 12" fill="none" xmlns="http://www.w3.org/2000/svg">
<path d="M11.617 0H3.44681C3.34524 0 3.24782 0.0403494 3.176 0.112172C3.10418 0.183994 3.06383 0.281406 3.06383 0.382979V3.06383H0.382979C0.281406 3.06383 0.183994 3.10418 0.112172 3.176C0.0403494 3.24782 0 3.34524 0 3.44681V11.617C0 11.7186 0.0403494 11.816 0.112172 11.8878C0.183994 11.9597 0.281406 12 0.382979 12H8.55319C8.65476 12 8.75218 11.9597 8.824 11.8878C8.89582 11.816 8.93617 11.7186 8.93617 11.617V8.93617H11.617C11.7186 8.93617 11.816 8.89582 11.8878 8.824C11.9597 8.75218 12 8.65476 12 8.55319V0.382979C12 0.281406 11.9597 0.183994 11.8878 0.112172C11.816 0.0403494 11.7186 0 11.617 0ZM8.17021 11.234H0.765957V3.82979H8.17021V11.234ZM11.234 8.17021H8.93617V3.44681C8.93617 3.34524 8.89582 3.24782 8.824 3.176C8.75218 3.10418 8.65476 3.06383 8.55319 3.06383H3.82979V0.765957H11.234V8.17021Z" fill="white"/>
</svg>
