<svg width="30" height="28" viewBox="0 0 30 28" fill="none" xmlns="http://www.w3.org/2000/svg">
<path d="M27.5273 0H2.02836C1.49041 0 0.974499 0.219681 0.594113 0.610716C0.213728 1.00175 2.95418e-05 1.53211 2.95418e-05 2.08512V25.915C-0.0020662 26.3125 0.107385 26.7023 0.315269 27.0375C0.523152 27.3727 0.82065 27.6392 1.17211 27.805C1.44044 27.933 1.73257 27.9995 2.02836 28.0001C2.50619 28.0004 2.96848 27.8256 3.33228 27.5071L3.34532 27.4952L8.00179 23.2997C8.05393 23.2567 8.11893 23.2335 8.18578 23.2341H27.5273C28.0653 23.2341 28.5812 23.0145 28.9616 22.6234C29.342 22.2324 29.5557 21.702 29.5557 21.149V2.08512C29.5557 1.53211 29.342 1.00175 28.9616 0.610716C28.5812 0.219681 28.0653 0 27.5273 0ZM27.8171 21.149C27.8171 21.228 27.7866 21.3038 27.7322 21.3597C27.6779 21.4155 27.6042 21.4469 27.5273 21.4469H8.18578C7.70861 21.4475 7.2469 21.621 6.88186 21.9369L6.86882 21.9488L2.20946 26.1444C2.16705 26.1793 2.11594 26.2012 2.06198 26.2077C2.00801 26.2142 1.95336 26.205 1.90426 26.181C1.85517 26.1571 1.8136 26.1195 1.7843 26.0725C1.75501 26.0254 1.73917 25.9709 1.7386 25.915V2.08512C1.7386 2.00611 1.76913 1.93035 1.82347 1.87449C1.87781 1.81862 1.95151 1.78724 2.02836 1.78724H27.5273C27.6042 1.78724 27.6779 1.81862 27.7322 1.87449C27.7866 1.93035 27.8171 2.00611 27.8171 2.08512V21.149Z" fill="#919699"/>
</svg>
