<svg width="75" height="98" viewBox="0 0 75 98" fill="none" xmlns="http://www.w3.org/2000/svg">
<path d="M37.5 0C31.284 0 25.3226 2.45833 20.9272 6.83418C16.5318 11.21 14.0625 17.1449 14.0625 23.3333V32.6667H9.375C6.8886 32.6667 4.50403 33.65 2.74587 35.4003C0.98772 37.1507 0 39.5246 0 42V88.6667C0 91.142 0.98772 93.516 2.74587 95.2663C4.50403 97.0167 6.8886 98 9.375 98H65.625C68.1114 98 70.496 97.0167 72.2541 95.2663C74.0123 93.516 75 91.142 75 88.6667V42C75 39.5246 74.0123 37.1507 72.2541 35.4003C70.496 33.65 68.1114 32.6667 65.625 32.6667H60.9375V23.3333C60.9375 20.2692 60.3313 17.235 59.1534 14.4041C57.9756 11.5731 56.2492 9.00088 54.0728 6.83418C51.8964 4.66747 49.3127 2.94875 46.4691 1.77614C43.6256 0.603535 40.5779 0 37.5 0ZM37.5 8.86667C45.5156 8.86667 52.0312 15.3533 52.0312 23.3333V32.6667H22.9687V23.3333C22.9687 15.3533 29.4844 8.86667 37.5 8.86667ZM38.3906 44.3333C42.7969 44.3333 46.3125 45.3133 48.8438 47.2267C51.375 49.1867 52.6406 51.8 52.6406 55.0667C52.6406 57.12 51.9375 58.94 50.5781 60.6667C49.2188 62.3467 47.4375 63.6533 45.2812 64.6333C44.0625 65.3333 43.2656 66.0333 42.8438 66.8267C42.4219 67.6667 42.1875 68.6933 42.1875 70H32.8125C32.8125 67.6667 33.2812 66.08 34.1719 64.96C35.1562 63.84 36.75 62.5333 39.1875 61.04C40.4062 60.3867 41.3906 59.5467 42.1875 58.52C42.8438 57.54 43.2188 56.3733 43.2188 55.0667C43.2188 53.6667 42.7969 52.64 41.9531 51.8467C41.1094 51.0067 39.8437 50.6333 38.3906 50.6333C37.125 50.6333 36.0938 50.96 35.1562 51.6133C34.4062 52.2667 33.9375 53.2467 33.9375 54.5533H24.7031C24.4688 51.3333 25.7812 48.5333 28.3594 46.8533C30.8906 45.1733 34.2188 44.3333 38.3906 44.3333ZM32.8125 74.6667H42.1875V84H32.8125V74.6667Z" fill="#1C3971"/>
</svg>
