<svg width="109" height="25" viewBox="0 0 109 25" fill="none" xmlns="http://www.w3.org/2000/svg">
<path d="M8.91579 8.66355C8.53057 8.27586 7.906 8.26753 7.51058 8.64482L4.60915 11.4132C4.21385 11.7904 3.5895 11.7822 3.20423 11.3948L2.67203 10.8596L0.408059 8.57816C0.0120254 8.17907 0.0209055 7.53258 0.427751 7.14452L7.62719 0.277543C8.02267 -0.0996756 8.64724 -0.0912454 9.0324 0.296511L16.0389 7.35035C16.4353 7.74937 16.4265 8.39612 16.0196 8.78431L13.691 11.0054L13.145 11.5255C12.7495 11.9023 12.1254 11.8937 11.7404 11.5063L8.91579 8.66355Z" fill="#07AAF4"/>
<path d="M8.70378 24.018C8.3083 24.3952 7.68373 24.3868 7.29858 23.999L0.291714 16.9448C-0.104501 16.5459 -0.0959357 15.8995 0.310708 15.5112L2.41237 13.5046L3.18599 12.7688C3.58156 12.3926 4.20524 12.4014 4.59002 12.7887L7.41519 15.632C7.80041 16.0197 8.42497 16.028 8.82039 15.6507L11.7211 12.883C12.1167 12.5056 12.7416 12.5141 13.1267 12.9022L13.8778 13.659L15.9223 15.7174C16.3186 16.1164 16.3099 16.7631 15.9029 17.1513L8.70378 24.018Z" fill="#1C3971"/>
<path d="M27.9349 7.18306C28.9648 7.18306 30.2169 7.81849 31.4027 8.67331L33.3944 6.19661C32.0743 4.94688 30.061 4.02705 27.9366 4.02705C24.8469 4.02543 22.5202 5.67006 22.5202 8.60831C22.5202 11.5466 24.8917 12.4453 26.7923 13.0141C28.0891 13.3862 29.051 13.6934 29.051 14.5921C29.051 15.6013 28.3346 15.8629 27.507 15.8629C26.2317 15.8629 24.2864 15.1609 23.2565 14.5254L21.9613 17.6181C22.9232 18.2535 25.2499 19.1311 27.4871 19.1311C30.7973 19.1311 33.1689 17.5092 33.1689 14.462C33.1689 11.4149 30.9764 10.6479 28.9416 10.0124C27.5551 9.57364 26.5252 9.24536 26.5252 8.32391C26.5252 7.51297 27.2185 7.18469 27.9349 7.18469V7.18306Z" fill="black"/>
<path d="M40.9368 14.4169C40.9368 15.3367 40.3995 15.886 39.6615 15.886C38.5869 15.886 38.5205 15.1401 38.5205 13.957V7.64331H34.7625V14.4608C34.7625 16.2793 35.6564 17.5956 37.5586 17.9467C36.149 18.9543 35.343 20.1829 35.343 21.6731C35.343 23.5355 36.6863 24.6975 39.2353 24.6975C42.5239 24.6975 44.2918 22.9667 44.6268 19.458C44.6948 18.8015 44.6948 17.0041 44.6948 16.3898V7.64331H40.9368V14.4169ZM41.0264 19.7002C41.0264 21.1466 40.7345 22.1119 39.7063 22.1119C38.9899 22.1119 38.6996 21.6065 38.6996 21.0588C38.6996 19.4808 39.8622 18.5155 41.0264 17.8362V19.7002Z" fill="black"/>
<path d="M53.2406 7.31502C51.7414 7.31502 50.6899 7.90657 49.9752 8.84915L49.7513 7.6433H46.6417L46.9104 9.90061V18.8665H50.6236V11.7646C50.6236 10.8221 51.1609 10.12 52.078 10.12C52.9951 10.12 53.0631 10.8221 53.0631 11.8297V18.8665H56.8211V11.1942C56.8211 8.51925 55.4347 7.3134 53.2422 7.3134L53.2406 7.31502Z" fill="black"/>
<path d="M64.0899 16.4564C63.3287 16.4564 62.7482 16.1492 62.7482 14.9434V10.5149H65.5443V7.64327H62.7482V3.63243H58.967V14.8556C58.967 17.0479 59.1229 19.2175 62.9273 19.2175C64.1794 19.2175 65.41 18.8453 66.1032 18.4065L65.2972 16.1053C64.9174 16.302 64.5144 16.4564 64.0899 16.4564Z" fill="black"/>
<path d="M72.291 16.4775C70.9261 16.4775 70.1665 15.6666 70.077 14.6801C72.2694 14.5485 75.9378 13.9131 75.9378 10.7343C75.9378 8.43149 74.3723 7.3134 72.0223 7.3134C68.198 7.3134 66.2726 10.3833 66.2726 13.562C66.2726 16.7408 67.8166 19.2175 71.7536 19.2175C74.2595 19.2175 75.9378 18.0783 76.049 17.9678L75.0655 15.5561C74.3491 16.0176 73.3656 16.4775 72.291 16.4775ZM71.8216 9.87949C72.359 9.87949 72.694 10.2289 72.694 10.7782C72.694 11.8524 71.1052 12.4001 69.8979 12.4651C69.9642 10.9537 70.7022 9.87949 71.8216 9.87949Z" fill="black"/>
<path d="M82.0608 16.3459C81.3444 16.3459 81.0989 15.886 81.0989 14.8995V3.63243H77.3625V15.1839C77.3625 17.2884 77.5632 19.2175 81.0309 19.2175C82.0376 19.2175 83.3793 18.9103 84.1637 18.4065L83.3577 15.9737C82.8436 16.1931 82.3958 16.3459 82.0608 16.3459Z" fill="black"/>
<path d="M89.5982 16.3459C88.8818 16.3459 88.6364 15.886 88.6364 14.8995V3.63243H84.8999V15.1839C84.8999 17.2884 85.1006 19.2175 88.5684 19.2175C89.575 19.2175 90.9167 18.9103 91.7011 18.4065L90.8951 15.9737C90.381 16.1931 89.9332 16.3459 89.5982 16.3459Z" fill="black"/>
<path d="M96.4576 7.64331H92.6996V18.8681H96.4576V7.64331Z" fill="black"/>
<path d="M94.5786 6.2634C95.6787 6.2634 96.5704 5.44849 96.5704 4.44325C96.5704 3.43801 95.6787 2.6231 94.5786 2.6231C93.4786 2.6231 92.5869 3.43801 92.5869 4.44325C92.5869 5.44849 93.4786 6.2634 94.5786 6.2634Z" fill="black"/>
<path d="M105.197 13.1021L108.843 7.64331H104.995L103.229 10.4938L101.572 7.64331H97.5903L101.126 13.146L97.2321 18.8681H101.282L103.116 15.8421L104.929 18.8681H109L105.197 13.1021Z" fill="black"/>
</svg>
