<svg width="15" height="9" viewBox="0 0 15 9" fill="none" xmlns="http://www.w3.org/2000/svg">
<path d="M0 0H14.6839V8.9998H0V0Z" fill="#D22F27"/>
<path d="M4.49984 4.4403C4.72874 4.4403 4.9143 4.25474 4.9143 4.02584C4.9143 3.79694 4.72874 3.61138 4.49984 3.61138C4.27094 3.61138 4.08538 3.79694 4.08538 4.02584C4.08538 4.25474 4.27094 4.4403 4.49984 4.4403Z" fill="#F1B31C"/>
<path d="M4.49984 2.0723C4.72874 2.0723 4.9143 1.88674 4.9143 1.65784C4.9143 1.42894 4.72874 1.24338 4.49984 1.24338C4.27094 1.24338 4.08538 1.42894 4.08538 1.65784C4.08538 1.88674 4.27094 2.0723 4.49984 2.0723Z" fill="#F1B31C"/>
<path d="M5.44684 3.7298C5.67574 3.7298 5.8613 3.54424 5.8613 3.31534C5.8613 3.08644 5.67574 2.90088 5.44684 2.90088C5.21794 2.90088 5.03238 3.08644 5.03238 3.31534C5.03238 3.54424 5.21794 3.7298 5.44684 3.7298Z" fill="#F1B31C"/>
<path d="M5.44684 2.5463C5.67574 2.5463 5.8613 2.36074 5.8613 2.13184C5.8613 1.90294 5.67574 1.71737 5.44684 1.71737C5.21794 1.71737 5.03238 1.90294 5.03238 2.13184C5.03238 2.36074 5.21794 2.5463 5.44684 2.5463Z" fill="#F1B31C"/>
<path d="M2.01939 3.65797L2.60485 1.76328L3.19055 3.65797L1.6575 2.48681H3.5522L2.01939 3.65797Z" fill="#F1B31C" stroke="#F1B31C" stroke-linecap="round" stroke-linejoin="round"/>
</svg>
