<svg width="48" height="49" viewBox="0 0 48 49" fill="none" xmlns="http://www.w3.org/2000/svg">
<path d="M23.7111 0.00414403C21.79 0.00530378 19.8726 0.173092 17.9805 0.505623L18.1786 0.477314C13.2791 1.34277 12.3914 3.15457 12.3914 6.49507V10.9073H23.9699V12.3773H8.04793L7.91448 12.3753C6.24089 12.3757 4.61925 12.9566 3.32608 14.0189C2.0329 15.0813 1.14826 16.5593 0.822992 18.201L0.814904 18.2475C0.297248 20.0107 0 22.0369 0 24.1318C0 26.2267 0.297248 28.2528 0.853324 30.1677L0.814904 30.014C1.6379 33.4415 3.60337 35.8822 6.96207 35.8822H10.9436V30.5924C10.9866 28.6924 11.7629 26.8827 13.1099 25.542C14.457 24.2014 16.2704 23.4337 18.1705 23.3998H29.741C31.2804 23.388 32.7529 22.7682 33.8373 21.6755C34.9217 20.5827 35.5303 19.1056 35.5302 17.566V17.5135V6.49102C35.4304 4.97135 34.7985 3.5354 33.7453 2.43529C32.6922 1.33518 31.2852 0.641236 29.7713 0.475292L29.743 0.47327C27.819 0.153716 25.8717 -0.00455735 23.9214 9.98455e-05H23.705H23.7151L23.7111 0.00414403ZM17.4507 3.55292H17.485C17.9211 3.55292 18.3474 3.68215 18.7101 3.9243C19.0727 4.16644 19.3555 4.51063 19.5226 4.91339C19.6898 5.31615 19.7338 5.75941 19.6492 6.18719C19.5646 6.61496 19.3551 7.00806 19.0471 7.31683C18.7392 7.6256 18.3467 7.83619 17.9191 7.922C17.4916 8.0078 17.0482 7.96498 16.645 7.79893C16.2418 7.63289 15.8968 7.35107 15.6537 6.98908C15.4105 6.62709 15.2801 6.20116 15.2789 5.76509V5.74891C15.2789 4.54375 16.2495 3.56505 17.4507 3.55292Z" fill="white"/>
<path d="M36.9757 12.3768V17.517C36.9545 19.437 36.1903 21.2741 34.8435 22.6427C33.4968 24.0113 31.6722 24.805 29.7528 24.8572H18.1783C16.637 24.8888 15.169 25.5217 14.0877 26.6207C13.0065 27.7196 12.3976 29.1977 12.3911 30.7394V41.7659C12.3911 44.9022 15.1189 46.7483 18.1783 47.6502C19.9072 48.2103 21.897 48.5339 23.9615 48.5339C26.0261 48.5339 28.0158 48.2103 29.8802 47.6118L29.7427 47.6502C32.6545 46.807 35.5299 45.1064 35.5299 41.7659V37.3497H23.9656V35.8796H41.3192C44.6839 35.8796 45.9376 33.5319 47.1084 30.0115C47.6746 28.2523 48.0002 26.2281 48.0002 24.1272C48.0002 22.0262 47.6746 20.0021 47.07 18.1034L47.1084 18.2449C46.2774 14.8963 44.6819 12.3768 41.3192 12.3768H36.9757ZM30.4727 40.2958H30.507C30.9434 40.2958 31.3699 40.4252 31.7327 40.6676C32.0955 40.9101 32.3782 41.2546 32.5452 41.6577C32.7122 42.0608 32.7559 42.5044 32.6708 42.9323C32.5856 43.3603 32.3755 43.7534 32.067 44.0619C31.7585 44.3704 31.3654 44.5805 30.9374 44.6657C30.5095 44.7508 30.0659 44.7071 29.6628 44.5401C29.2597 44.3732 28.9151 44.0904 28.6727 43.7276C28.4303 43.3648 28.3009 42.9383 28.3009 42.502V42.4797C28.3009 41.2766 29.2715 40.3019 30.4727 40.2958Z" fill="white"/>
</svg>
