<svg width="28" height="28" viewBox="0 0 28 28" fill="none" xmlns="http://www.w3.org/2000/svg">
<path fill-rule="evenodd" clip-rule="evenodd" d="M7.5662 21.5002C12.3577 20.8002 15.6568 20.8604 20.4546 21.5247C20.8021 21.5751 21.1196 21.7494 21.3484 22.0157C21.5773 22.2819 21.7022 22.6219 21.6999 22.973C21.6999 23.309 21.5844 23.6352 21.3758 23.89C21.0122 24.3342 20.6398 24.7711 20.2586 25.2004H22.1073C22.2235 25.0618 22.3404 24.9204 22.4587 24.7769C22.8739 24.2677 23.1004 23.6307 23.0999 22.9737C23.0999 21.5562 22.0653 20.3347 20.6464 20.1387C15.7352 19.459 12.3024 19.3939 7.3639 20.1156C5.9303 20.3249 4.8999 21.5653 4.8999 22.9926C4.8999 23.6261 5.1064 24.2526 5.4977 24.7601C5.6132 24.9099 5.7273 25.0569 5.8407 25.2011H7.6446C7.29 24.7766 6.94413 24.3448 6.6072 23.9061C6.40698 23.6435 6.29896 23.3221 6.2999 22.9919C6.2999 22.238 6.8417 21.6059 7.5662 21.5002ZM13.9999 14.7004C14.5515 14.7004 15.0976 14.5918 15.6072 14.3807C16.1167 14.1696 16.5797 13.8602 16.9698 13.4702C17.3598 13.0802 17.6691 12.6172 17.8802 12.1077C18.0913 11.5981 18.1999 11.0519 18.1999 10.5004C18.1999 9.94884 18.0913 9.40269 17.8802 8.89312C17.6691 8.38355 17.3598 7.92055 16.9698 7.53054C16.5797 7.14054 16.1167 6.83117 15.6072 6.6201C15.0976 6.40903 14.5515 6.30039 13.9999 6.30039C12.886 6.30039 11.8177 6.74289 11.0301 7.53054C10.2424 8.3182 9.7999 9.38648 9.7999 10.5004C9.7999 11.6143 10.2424 12.6826 11.0301 13.4702C11.8177 14.2579 12.886 14.7004 13.9999 14.7004ZM13.9999 16.1004C15.4851 16.1004 16.9095 15.5104 17.9597 14.4602C19.0099 13.41 19.5999 11.9856 19.5999 10.5004C19.5999 9.01518 19.0099 7.5908 17.9597 6.54059C16.9095 5.49039 15.4851 4.90039 13.9999 4.90039C12.5147 4.90039 11.0903 5.49039 10.0401 6.54059C8.9899 7.5908 8.3999 9.01518 8.3999 10.5004C8.3999 11.9856 8.9899 13.41 10.0401 14.4602C11.0903 15.5104 12.5147 16.1004 13.9999 16.1004Z" fill="#07AAF4"/>
<path fill-rule="evenodd" clip-rule="evenodd" d="M14 26.6C20.9587 26.6 26.6 20.9587 26.6 14C26.6 7.0413 20.9587 1.4 14 1.4C7.0413 1.4 1.4 7.0413 1.4 14C1.4 20.9587 7.0413 26.6 14 26.6ZM14 28C21.7322 28 28 21.7322 28 14C28 6.2678 21.7322 0 14 0C6.2678 0 0 6.2678 0 14C0 21.7322 6.2678 28 14 28Z" fill="#07AAF4"/>
</svg>
