<svg width="16" height="19" viewBox="0 0 16 19" fill="none" xmlns="http://www.w3.org/2000/svg">
<path d="M8.0024 9.88044C7.68001 9.88169 7.36696 9.9888 7.11137 10.1853C6.85578 10.3818 6.6718 10.6568 6.58771 10.968C6.50362 11.2792 6.52408 11.6095 6.64594 11.9079C6.76781 12.2064 6.98432 12.4566 7.26221 12.62V14.7187H8.76064V12.62C8.98049 12.49 9.16296 12.3052 9.29029 12.0838C9.41762 11.8624 9.48548 11.6117 9.48728 11.3563C9.48729 11.1617 9.44881 10.9691 9.37408 10.7894C9.29935 10.6098 9.18983 10.4467 9.05183 10.3095C8.91382 10.1723 8.75006 10.0638 8.56996 9.99018C8.38985 9.91654 8.19697 9.87925 8.0024 9.88044Z" stroke="#5E6366" stroke-linecap="round" stroke-linejoin="round"/>
<path d="M13.5491 6.49053H2.45087C1.37405 6.49053 0.501116 7.36347 0.501116 8.44029V16.1536C0.501116 17.2304 1.37405 18.1033 2.45087 18.1033H13.5491C14.6259 18.1033 15.4989 17.2304 15.4989 16.1536V8.44029C15.4989 7.36347 14.6259 6.49053 13.5491 6.49053Z" stroke="#5E6366" stroke-linecap="round" stroke-linejoin="round"/>
<path d="M3.1956 6.49029V5.31232C3.1956 4.03631 3.70249 2.81256 4.60476 1.91028C5.50704 1.00801 6.73079 0.501116 8.0068 0.501116C9.28281 0.501116 10.5066 1.00801 11.4088 1.91028C12.3111 2.81256 12.818 4.03631 12.818 5.31232V6.49029" stroke="#5E6366" stroke-linecap="round" stroke-linejoin="round"/>
</svg>
