<svg width="75" height="60" viewBox="0 0 75 60" fill="none" xmlns="http://www.w3.org/2000/svg">
<path d="M0.255 5.54096L33.5363 38.7269C34.5208 39.7092 35.8359 40.2924 37.227 40.3635C38.618 40.4347 39.986 39.9887 41.0662 39.112L41.4937 38.7269L74.7525 5.56339C74.8613 5.97467 74.9325 6.39341 74.97 6.82338L75 7.47768V52.3438C75.0006 54.2303 74.286 56.0473 72.9994 57.4306C71.7128 58.8139 69.9493 59.6613 68.0625 59.8027L67.5 59.8214H7.5C5.60784 59.822 3.78538 59.1095 2.39794 57.8268C1.01051 56.544 0.160662 54.7858 0.0187504 52.9046L0 52.3438V7.47768C0 7.02902 0.0374999 6.59531 0.1125 6.16909L0.255 5.54096ZM67.5 0C67.9538 0 68.4 0.0373889 68.8312 0.115905L69.4688 0.261719L37.5187 32.1166L5.5575 0.25424C5.97 0.142075 6.3975 0.0672987 6.8325 0.0299103L7.5 0H67.5Z" fill="#1C3971"/>
</svg>
