<svg width="19" height="21" viewBox="0 0 19 21" fill="none" xmlns="http://www.w3.org/2000/svg">
<path d="M8 16C8.55 16 9.021 15.804 9.413 15.412C9.805 15.02 10.0007 14.5493 10 14C10 13.45 9.804 12.979 9.412 12.587C9.02 12.195 8.54934 11.9993 8 12C7.45 12 6.979 12.196 6.587 12.588C6.195 12.98 5.99934 13.4507 6 14C6 14.55 6.196 15.021 6.588 15.413C6.98 15.805 7.45067 16.0007 8 16ZM2 21C1.45 21 0.979002 20.804 0.587002 20.412C0.195002 20.02 -0.000664969 19.5493 1.69779e-06 19V9C1.69779e-06 8.45 0.196001 7.979 0.588001 7.587C0.980001 7.195 1.45067 6.99933 2 7H9V5C9 3.61667 9.48767 2.43733 10.463 1.462C11.4383 0.486667 12.6173 -0.000665984 14 6.8306e-07C15.25 6.8306e-07 16.3377 0.404334 17.263 1.213C18.1883 2.02167 18.742 3.01733 18.924 4.2C18.9573 4.41667 18.8823 4.60433 18.699 4.763C18.5157 4.92167 18.2827 5.00067 18 5C17.7167 5 17.4833 4.94167 17.3 4.825C17.1167 4.70833 16.9833 4.51667 16.9 4.25C16.7167 3.61667 16.3627 3.08333 15.838 2.65C15.3133 2.21667 14.7007 2 14 2C13.1667 2 12.4583 2.29167 11.875 2.875C11.2917 3.45833 11 4.16667 11 5V7H14C14.55 7 15.021 7.196 15.413 7.588C15.805 7.98 16.0007 8.45067 16 9V19C16 19.55 15.804 20.021 15.412 20.413C15.02 20.805 14.5493 21.0007 14 21H2Z" fill="white"/>
</svg>
