<svg width="18" height="18" viewBox="0 0 18 18" fill="none" xmlns="http://www.w3.org/2000/svg">
<path d="M14.3985 16.8003H1.19988V3.60173H9.13106L10.3309 2.40186H1.19988C0.88165 2.40186 0.576456 2.52827 0.351436 2.75329C0.126415 2.97831 0 3.2835 0 3.60173V16.8003C0 17.1186 0.126415 17.4238 0.351436 17.6488C0.576456 17.8738 0.88165 18.0002 1.19988 18.0002H14.3985C14.7168 18.0002 15.0219 17.8738 15.247 17.6488C15.472 17.4238 15.5984 17.1186 15.5984 16.8003V7.80128L14.3985 9.00116V16.8003Z" fill="#5E6366"/>
<path d="M17.716 2.30563L15.6942 0.283841C15.6045 0.193869 15.4979 0.122484 15.3806 0.0737778C15.2632 0.0250714 15.1374 0 15.0103 0C14.8832 0 14.7574 0.0250714 14.6401 0.0737778C14.5227 0.122484 14.4161 0.193869 14.3264 0.283841L6.10122 8.55697L5.43529 11.4427C5.40692 11.5825 5.4099 11.727 5.44402 11.8656C5.47814 12.0042 5.54255 12.1335 5.63262 12.2442C5.72269 12.3549 5.83618 12.4443 5.96492 12.5059C6.09367 12.5675 6.23447 12.5998 6.37719 12.6005C6.45096 12.6087 6.5254 12.6087 6.59917 12.6005L9.50887 11.9586L17.716 3.67348C17.806 3.58376 17.8774 3.47716 17.9261 3.3598C17.9748 3.24244 17.9999 3.11662 17.9999 2.98955C17.9999 2.86249 17.9748 2.73667 17.9261 2.61931C17.8774 2.50195 17.806 2.39535 17.716 2.30563ZM8.88494 10.8487L6.68916 11.3347L7.19911 9.1569L13.3905 2.92356L15.0823 4.61538L8.88494 10.8487ZM15.7602 3.93745L14.0684 2.24563L14.9983 1.29773L16.7021 3.00155L15.7602 3.93745Z" fill="#5E6366"/>
</svg>
