<svg width="59" height="9" viewBox="0 0 59 9" fill="none" xmlns="http://www.w3.org/2000/svg">
<path d="M42.0259 6.79386L44.7755 8.4534L44.0458 5.32564L46.475 3.22119L43.2761 2.94979L42.0259 0L40.7757 2.94979L37.5767 3.22119L40.006 5.32564L39.2763 8.4534L42.0259 6.79386Z" fill="#F3AA18"/>
<path d="M29.4997 6.79386L32.2492 8.4534L31.5196 5.32564L33.9488 3.22119L30.7499 2.94979L29.4997 0L28.2494 2.94979L25.0505 3.22119L27.4797 5.32564L26.7501 8.4534L29.4997 6.79386Z" fill="#F3AA18"/>
<path d="M16.9744 6.79386L19.724 8.4534L18.9943 5.32564L21.4236 3.22119L18.2246 2.94979L16.9744 0L15.7242 2.94979L12.5252 3.22119L14.9545 5.32564L14.2248 8.4534L16.9744 6.79386Z" fill="#F3AA18"/>
<path d="M4.44916 6.79386L7.19874 8.4534L6.46907 5.32564L8.89831 3.22119L5.69937 2.94979L4.44916 0L3.19894 2.94979L0 3.22119L2.42924 5.32564L1.69958 8.4534L4.44916 6.79386Z" fill="#F3AA18"/>
<path d="M59.0003 3.22119L55.8013 2.94534L54.5511 0L53.3009 2.94979L50.102 3.22119L52.5312 5.32564L51.8016 8.4534L54.5511 6.79386L57.3007 8.4534L56.5755 5.32564L59.0003 3.22119ZM54.5511 5.96187V1.82415L55.3119 3.62161L57.2607 3.79068L55.7835 5.07204L56.2285 6.97628L54.5511 5.96187Z" fill="#F3AA18"/>
</svg>
