<svg width="30" height="30" viewBox="0 0 30 30" fill="none" xmlns="http://www.w3.org/2000/svg">
<path d="M0.769758 29.2301C0.769758 27.2165 0.769758 26.2104 1.39589 25.5871C2.0206 24.961 3.02668 24.961 5.03883 24.961C7.05241 24.961 8.05849 24.961 8.68178 25.5871C9.30791 26.2118 9.30791 27.2179 9.30791 29.2301V16.4228C9.30791 14.4092 9.30791 13.4032 9.93404 12.7799C10.5587 12.1538 11.5648 12.1538 13.577 12.1538H16.423C18.4366 12.1538 19.4427 12.1538 20.066 12.7799C20.6921 13.4046 20.6921 14.4107 20.6921 16.4228V29.2301V24.961C20.6921 22.9474 20.6921 21.9413 21.3182 21.318C21.943 20.6919 22.949 20.6919 24.9612 20.6919C26.9748 20.6919 27.9808 20.6919 28.6041 21.318C29.2303 21.9427 29.2303 22.9488 29.2303 24.961V29.2301" stroke="#07AAF4" stroke-width="1.5" stroke-linecap="round"/>
<path d="M13.7842 2.22551C14.325 1.25359 14.5953 0.769758 14.9995 0.769758C15.4036 0.769758 15.674 1.25359 16.2147 2.22551L16.3542 2.47596C16.5079 2.75203 16.5847 2.88864 16.7043 2.97972C16.8252 3.07079 16.9746 3.10494 17.2735 3.17182L17.5438 3.23444C18.594 3.47208 19.1191 3.59019 19.2444 3.99149C19.3696 4.3942 19.011 4.81257 18.2952 5.64931L18.1102 5.86561C17.9067 6.10326 17.8043 6.22137 17.7587 6.36936C17.7132 6.51736 17.7288 6.67531 17.7587 6.99265L17.7872 7.28152C17.8953 8.3986 17.9494 8.95784 17.6235 9.20545C17.2962 9.45448 16.8039 9.2268 15.8206 8.77427L15.5673 8.65759C15.2869 8.52951 15.1475 8.46406 14.9995 8.46406C14.8515 8.46406 14.712 8.52951 14.4317 8.65759L14.1784 8.77427C13.1951 9.2268 12.7027 9.45448 12.3754 9.20545C12.0481 8.95784 12.1036 8.3986 12.2118 7.28152L12.2402 6.99265C12.2701 6.67531 12.2858 6.51736 12.2402 6.36936C12.1947 6.22279 12.0922 6.10326 11.8887 5.86561L11.7037 5.64931C10.988 4.81257 10.6294 4.3942 10.7546 3.99149C10.8798 3.59019 11.4049 3.47208 12.4551 3.23444L12.7255 3.17182C13.0243 3.10494 13.1737 3.07221 13.2947 2.97972C13.4142 2.88864 13.4911 2.75203 13.6448 2.47596L13.7842 2.22551Z" stroke="#07AAF4" stroke-width="1.5"/>
</svg>
