<svg width="14" height="12" viewBox="0 0 14 12" fill="none" xmlns="http://www.w3.org/2000/svg">
<path d="M8.49575 7.996C9.13943 7.996 9.66184 8.51841 9.66184 9.16208L9.66117 9.8031C9.73913 11.2624 8.65434 12 6.70798 12C4.76895 12 3.66483 11.2737 3.66483 9.82842V9.16208C3.66483 8.51841 4.18724 7.996 4.83092 7.996H8.49575ZM1.16608 4.66433H4.08196C3.9657 5.11677 3.97017 5.59179 4.09493 6.04195C4.21969 6.49212 4.46037 6.90167 4.79294 7.22972L4.90088 7.33033L4.83092 7.32967C4.431 7.32952 4.04202 7.46021 3.72332 7.70179C3.40462 7.94337 3.1737 8.28258 3.0658 8.66766L3.04315 8.66833C1.10411 8.66833 0 7.94203 0 6.49675V5.83042C0 5.18674 0.522405 4.66433 1.16608 4.66433ZM12.1606 4.66433C12.8043 4.66433 13.3267 5.18674 13.3267 5.83042L13.326 6.47143C13.404 7.9307 12.3192 8.66833 10.3728 8.66833L10.2602 8.667C10.1578 8.30405 9.94606 7.98144 9.65386 7.74301C9.36166 7.50458 9.00314 7.36189 8.62702 7.33433L8.49575 7.32967L8.42579 7.33033C8.79568 7.00545 9.0681 6.58424 9.21269 6.11364C9.35728 5.64304 9.36837 5.14153 9.24471 4.665L12.1606 4.66433ZM6.66334 3.33167C6.92585 3.33167 7.18579 3.38337 7.42832 3.48383C7.67085 3.58429 7.89122 3.73154 8.07684 3.91716C8.26247 4.10278 8.40971 4.32315 8.51017 4.56568C8.61063 4.80821 8.66234 5.06816 8.66234 5.33067C8.66234 5.59318 8.61063 5.85312 8.51017 6.09565C8.40971 6.33818 8.26247 6.55855 8.07684 6.74417C7.89122 6.9298 7.67085 7.07704 7.42832 7.1775C7.18579 7.27796 6.92585 7.32967 6.66334 7.32967C6.13317 7.32967 5.62471 7.11906 5.24983 6.74417C4.87494 6.36929 4.66433 5.86084 4.66433 5.33067C4.66433 4.8005 4.87494 4.29205 5.24983 3.91716C5.62471 3.54228 6.13317 3.33167 6.66334 3.33167ZM2.9985 0C3.52867 0 4.03712 0.210608 4.41201 0.585494C4.78689 0.960379 4.9975 1.46883 4.9975 1.999C4.9975 2.52917 4.78689 3.03762 4.41201 3.41251C4.03712 3.78739 3.52867 3.998 2.9985 3.998C2.46833 3.998 1.95988 3.78739 1.58499 3.41251C1.21011 3.03762 0.9995 2.52917 0.9995 1.999C0.9995 1.46883 1.21011 0.960379 1.58499 0.585494C1.95988 0.210608 2.46833 0 2.9985 0ZM10.3282 0C10.8583 0 11.3668 0.210608 11.7417 0.585494C12.1166 0.960379 12.3272 1.46883 12.3272 1.999C12.3272 2.52917 12.1166 3.03762 11.7417 3.41251C11.3668 3.78739 10.8583 3.998 10.3282 3.998C9.798 3.998 9.28955 3.78739 8.91466 3.41251C8.53978 3.03762 8.32917 2.52917 8.32917 1.999C8.32917 1.46883 8.53978 0.960379 8.91466 0.585494C9.28955 0.210608 9.798 0 10.3282 0Z" fill="#5E6366"/>
</svg>
