<svg width="19" height="19" viewBox="0 0 19 19" fill="none" xmlns="http://www.w3.org/2000/svg">
<path d="M16.7314 10.0171V8.97595L18.0379 7.83273C18.2788 7.62045 18.4368 7.32986 18.4842 7.01232C18.5315 6.69479 18.465 6.37075 18.2965 6.09747L16.6906 3.3755C16.5712 3.1688 16.3996 2.99713 16.193 2.87769C15.9864 2.75825 15.752 2.69525 15.5133 2.695C15.3654 2.69387 15.2183 2.71685 15.0778 2.76305L13.4242 3.32106C13.1387 3.13134 12.8409 2.96084 12.5328 2.81069L12.1857 1.09584C12.1235 0.782548 11.953 0.501121 11.7042 0.300825C11.4554 0.10053 11.1441 -0.00587006 10.8247 0.000250034H7.64001C7.32065 -0.00587006 7.00932 0.10053 6.7605 0.300825C6.51169 0.501121 6.34125 0.782548 6.27902 1.09584L5.93197 2.81069C5.62162 2.9608 5.32155 3.1313 5.03372 3.32106L3.41415 2.73583C3.27213 2.69883 3.12506 2.68504 2.97863 2.695C2.73997 2.69525 2.50556 2.75825 2.29893 2.87769C2.0923 2.99713 1.92071 3.1688 1.80138 3.3755L0.195415 6.09747C0.036579 6.37034 -0.0224438 6.68994 0.0284554 7.00155C0.0793546 7.31315 0.237009 7.59736 0.474417 7.80551L1.76055 8.98276V10.0239L0.474417 11.1671C0.230303 11.3767 0.0683365 11.666 0.0172609 11.9837C-0.0338148 12.3014 0.0293037 12.6269 0.195415 12.9024L1.80138 15.6244C1.92071 15.8311 2.0923 16.0027 2.29893 16.1222C2.50556 16.2416 2.73997 16.3046 2.97863 16.3049C3.12654 16.306 3.27364 16.283 3.41415 16.2368L5.06775 15.6788C5.35324 15.8685 5.65105 16.039 5.95919 16.1892L6.30624 17.904C6.36847 18.2173 6.53891 18.4987 6.78772 18.699C7.03654 18.8993 7.34787 19.0057 7.66723 18.9996H10.8792C11.1985 19.0057 11.5099 18.8993 11.7587 18.699C12.0075 18.4987 12.1779 18.2173 12.2401 17.904L12.5872 16.1892C12.8975 16.0391 13.1976 15.8686 13.4854 15.6788L15.1322 16.2368C15.2728 16.283 15.4199 16.306 15.5678 16.3049C15.8064 16.3046 16.0408 16.2416 16.2475 16.1222C16.4541 16.0027 16.6257 15.8311 16.745 15.6244L18.2965 12.9024C18.4554 12.6295 18.5144 12.3099 18.4635 11.9983C18.4126 11.6867 18.2549 11.4025 18.0175 11.1944L16.7314 10.0171ZM15.5133 14.9439L13.1792 14.1545C12.6328 14.6173 12.0084 14.9791 11.3351 15.2229L10.8519 17.6659H7.64001L7.15686 15.2501C6.4889 14.9994 5.86781 14.6382 5.31953 14.1817L2.97863 14.9439L1.37267 12.2219L3.22361 10.5887C3.09778 9.88432 3.09778 9.16319 3.22361 8.45878L1.37267 6.77796L2.97863 4.05599L5.31272 4.84536C5.85912 4.38255 6.48358 4.02078 7.15686 3.77699L7.64001 1.33402H10.8519L11.3351 3.74977C12.003 4.00048 12.6241 4.36163 13.1724 4.81814L15.5133 4.05599L17.1193 6.77796L15.2683 8.41114C15.3942 9.11555 15.3942 9.83668 15.2683 10.5411L17.1193 12.2219L15.5133 14.9439Z" fill="black"/>
<path d="M9.24584 13.5831C8.43831 13.5831 7.64891 13.3436 6.97747 12.895C6.30603 12.4463 5.78271 11.8086 5.47368 11.0626C5.16465 10.3165 5.08379 9.49558 5.24133 8.70356C5.39887 7.91154 5.78774 7.18403 6.35875 6.61302C6.92976 6.04201 7.65728 5.65314 8.44929 5.4956C9.24131 5.33806 10.0623 5.41891 10.8083 5.72794C11.5544 6.03697 12.1921 6.5603 12.6407 7.23174C13.0893 7.90317 13.3288 8.69257 13.3288 9.50011C13.3343 10.0378 13.2324 10.5712 13.0291 11.069C12.8259 11.5669 12.5253 12.0191 12.1451 12.3994C11.7649 12.7796 11.3126 13.0801 10.8148 13.2834C10.3169 13.4866 9.78354 13.5885 9.24584 13.5831ZM9.24584 6.77813C8.88609 6.76975 8.52838 6.83443 8.19435 6.96826C7.86032 7.10208 7.5569 7.30227 7.30245 7.55672C7.048 7.81117 6.84781 8.11459 6.71399 8.44862C6.58016 8.78265 6.51548 9.14036 6.52387 9.50011C6.51548 9.85985 6.58016 10.2176 6.71399 10.5516C6.84781 10.8856 7.048 11.189 7.30245 11.4435C7.5569 11.6979 7.86032 11.8981 8.19435 12.032C8.52838 12.1658 8.88609 12.2305 9.24584 12.2221C9.60558 12.2305 9.96329 12.1658 10.2973 12.032C10.6314 11.8981 10.9348 11.6979 11.1892 11.4435C11.4437 11.189 11.6439 10.8856 11.7777 10.5516C11.9115 10.2176 11.9762 9.85985 11.9678 9.50011C11.9762 9.14036 11.9115 8.78265 11.7777 8.44862C11.6439 8.11459 11.4437 7.81117 11.1892 7.55672C10.9348 7.30227 10.6314 7.10208 10.2973 6.96826C9.96329 6.83443 9.60558 6.76975 9.24584 6.77813Z" fill="black"/>
</svg>
