<svg width="14" height="10" viewBox="0 0 14 10" fill="none" xmlns="http://www.w3.org/2000/svg">
<path d="M7 9.68952C5.60422 9.70756 4.23041 9.34091 3.02924 8.62976C1.82807 7.91862 0.845915 6.89045 0.190475 5.658C0.0651883 5.40532 0 5.12711 0 4.84508C0 4.56305 0.0651883 4.28483 0.190475 4.03216C0.845915 2.7997 1.82807 1.77153 3.02924 1.06039C4.23041 0.349246 5.60422 -0.0174074 7 0.000635177C8.39578 -0.0174074 9.76959 0.349246 10.9708 1.06039C12.1719 1.77153 13.1541 2.7997 13.8095 4.03216C13.9348 4.28483 14 4.56305 14 4.84508C14 5.12711 13.9348 5.40532 13.8095 5.658C13.1541 6.89045 12.1719 7.91862 10.9708 8.62976C9.76959 9.34091 8.39578 9.70756 7 9.68952ZM7 0.704462C5.73472 0.685497 4.48866 1.01543 3.39856 1.65807C2.30846 2.30071 1.41644 3.23121 0.8204 4.34747C0.743306 4.50214 0.703178 4.67261 0.703178 4.84543C0.703178 5.01825 0.743306 5.18871 0.8204 5.34339C1.4166 6.45946 2.30867 7.38978 3.39875 8.03228C4.48883 8.67478 5.7348 9.00464 7 8.98569C8.26528 9.00465 9.51134 8.67472 10.6014 8.03208C11.6915 7.38944 12.5836 6.45894 13.1796 5.34268C13.2567 5.18813 13.2968 5.01778 13.2968 4.84508C13.2968 4.67237 13.2567 4.50202 13.1796 4.34747C12.5836 3.23121 11.6915 2.30071 10.6014 1.65807C9.51134 1.01543 8.26528 0.685497 7 0.704462Z" fill="#5E6366"/>
<path d="M7.00118 7.69524C6.43755 7.69524 5.88657 7.52811 5.41792 7.21497C4.94927 6.90183 4.58401 6.45675 4.36831 5.93602C4.15262 5.41528 4.09618 4.84229 4.20614 4.28948C4.3161 3.73667 4.58752 3.22889 4.98607 2.83034C5.38462 2.43179 5.89241 2.16037 6.44521 2.05041C6.99802 1.94045 7.57102 1.99689 8.09175 2.21258C8.61248 2.42827 9.05756 2.79354 9.3707 3.26219C9.68384 3.73083 9.85098 4.28181 9.85098 4.84545C9.85005 5.60097 9.5495 6.32529 9.01526 6.85953C8.48103 7.39377 7.75671 7.69431 7.00118 7.69524ZM7.00118 2.69807C6.57681 2.69807 6.16196 2.82389 5.80909 3.05963C5.45622 3.29537 5.18117 3.63045 5.0187 4.02249C4.85624 4.41453 4.81366 4.84594 4.89635 5.26218C4.97903 5.67842 5.18328 6.0608 5.48326 6.36097C5.78324 6.66115 6.16548 6.86564 6.58166 6.9486C6.99785 7.03156 7.42929 6.98927 7.82143 6.82706C8.21358 6.66485 8.54883 6.39002 8.78481 6.0373C9.02078 5.68458 9.14687 5.26982 9.14715 4.84545C9.14659 4.27647 8.92032 3.73096 8.51799 3.32864C8.11567 2.92631 7.57016 2.70004 7.00118 2.69948V2.69807Z" fill="#5E6366"/>
<path d="M6.99888 6.27345C7.78719 6.27345 8.42624 5.6344 8.42624 4.84609C8.42624 4.05778 7.78719 3.41873 6.99888 3.41873C6.21057 3.41873 5.57152 4.05778 5.57152 4.84609C5.57152 5.6344 6.21057 6.27345 6.99888 6.27345Z" fill="#5E6366"/>
</svg>
