<svg width="56" height="78" viewBox="0 0 56 78" fill="none" xmlns="http://www.w3.org/2000/svg">
<path d="M40.7644 47.6677C42.2182 46.647 44.2358 45.7635 44.2358 45.7635C44.2358 45.7635 38.4946 46.8299 32.7831 47.3173C25.7958 47.9115 18.2893 48.0333 14.5212 47.5154C5.60533 46.2967 19.4168 42.9299 19.4168 42.9299C19.4168 42.9299 14.0613 42.5643 7.45971 45.8244C-0.328693 49.6939 26.7453 51.461 40.7644 47.6677ZM28.0953 42.7776C25.2766 36.2726 15.7673 30.5598 28.0953 20.5661C43.4733 8.10458 35.587 0 35.587 0C38.7765 12.8729 24.3717 16.7728 19.1646 24.7708C15.619 30.2398 20.9003 36.105 28.0953 42.7776ZM45.0962 15.9349C45.1111 15.9349 19.1052 22.6075 31.5222 37.2933C35.1864 41.6198 30.5579 45.5197 30.5579 45.5197C30.5579 45.5197 39.8595 40.5838 35.587 34.414C31.5963 28.6555 28.5403 25.7915 45.0962 15.9349ZM44.1913 57.1434C44.1102 57.2885 44.0104 57.4218 43.8946 57.5395C62.928 52.4056 55.9258 39.426 46.8319 42.7166C46.3408 42.902 45.9164 43.2368 45.6155 43.6764C46.1465 43.479 46.6922 43.3262 47.2473 43.2194C51.8462 42.2291 58.4478 49.5415 44.1913 57.1434ZM51.1875 66.6343C51.1875 66.6343 53.3386 68.4471 48.8287 69.8639C40.2392 72.5299 13.1059 73.3373 5.56972 69.9706C2.85491 68.7671 7.94333 67.0761 9.54552 66.7257C11.207 66.3601 12.1713 66.421 12.1713 66.421C9.15981 64.2425 -7.3071 70.7018 3.80435 72.5451C34.1035 77.6029 59.0501 70.2752 51.1875 66.6343ZM18.0223 60.3273C6.34708 63.6788 25.1283 70.5952 39.993 64.0597C38.5432 63.4813 37.1438 62.778 35.8095 61.9574C29.1782 63.2523 26.1074 63.3437 20.0843 62.6429C15.1146 62.064 18.0223 60.3273 18.0223 60.3273ZM44.6957 75.1349C33.0205 77.3896 18.6157 77.1306 10.0855 75.6834C10.0855 75.6681 11.8361 77.1611 20.8261 77.7552C34.504 78.654 55.5104 77.2525 56 70.6104C56 70.6104 55.0506 73.124 44.6957 75.1349ZM38.2276 53.7766C29.4453 55.5133 24.3568 55.4676 17.9333 54.7821C12.9635 54.2489 16.2124 51.781 16.2124 51.781C3.33556 56.1684 23.3629 61.1347 41.3578 55.7266C40.1948 55.3049 39.1291 54.641 38.2276 53.7766Z" fill="white"/>
</svg>
