<svg width="135" height="31" viewBox="0 0 135 31" fill="none" xmlns="http://www.w3.org/2000/svg">
<path d="M11.3079 11.2036C10.5367 10.4116 9.26946 10.3947 8.47744 11.1659L5.97706 13.6005C5.18526 14.3714 3.91847 14.3548 3.14718 13.5633L3.02226 13.4351L0.711604 11.0589C-0.0588125 10.2667 -0.0414085 8.99998 0.750483 8.22919L8.62208 0.567322C9.41424 -0.203728 10.6815 -0.186619 11.4525 0.605537L19.1137 8.47648C19.8848 9.26863 19.8677 10.5358 19.0756 11.3069L16.6994 13.6198L16.5723 13.7434C15.7801 14.5135 14.5137 14.4961 13.743 13.7045L11.3079 11.2036Z" fill="white"/>
<path d="M11.0597 29.5666C10.2675 30.3376 9.00031 30.3205 8.22926 29.5284L0.567356 21.6567C-0.203421 20.8648 -0.186637 19.5981 0.604852 18.827L2.69989 16.7857L3.10952 16.3882C3.90188 15.6191 5.16733 15.637 5.93763 16.4282L8.37391 18.9303C9.14509 19.7223 10.4123 19.7392 11.2043 18.968L13.7033 16.5349C14.4956 15.7633 15.7635 15.7806 16.5346 16.5735L16.9312 16.9813L18.9689 19.0749C19.7399 19.8671 19.7228 21.1343 18.9307 21.9053L11.0597 29.5666Z" fill="white"/>
<path d="M34.3791 8.77827C35.6575 8.77827 37.2116 9.58314 38.6834 10.6659L41.1557 7.52877C39.5171 5.94579 37.0181 4.78069 34.3812 4.78069C30.5462 4.77863 27.6582 6.86182 27.6582 10.5836C27.6582 14.3053 30.6018 15.4437 32.9608 16.1641C34.5706 16.6355 35.7645 17.0246 35.7645 18.1629C35.7645 19.4412 34.8752 19.7727 33.8481 19.7727C32.2651 19.7727 29.8505 18.8834 28.5722 18.0785L26.9645 21.9958C28.1584 22.8007 31.0465 23.9123 33.8234 23.9123C37.9321 23.9123 40.8757 21.8579 40.8757 17.9982C40.8757 14.1386 38.1544 13.167 35.6286 12.3621C33.9078 11.8063 32.6294 11.3905 32.6294 10.2233C32.6294 9.19614 33.4899 8.78033 34.3791 8.78033V8.77827Z" fill="white"/>
<path d="M50.5177 17.9403C50.5177 19.1054 49.8507 19.8012 48.9347 19.8012C47.6008 19.8012 47.5184 18.8563 47.5184 17.3578V9.36053H42.8539V17.9959C42.8539 20.2993 43.9634 21.9667 46.3245 22.4113C44.5748 23.6876 43.5744 25.2438 43.5744 27.1315C43.5744 29.4905 45.2418 30.9623 48.4057 30.9623C52.4876 30.9623 54.682 28.77 55.0978 24.3257C55.1822 23.4941 55.1822 21.2174 55.1822 20.4393V9.36053H50.5177V17.9403ZM50.6288 24.6324C50.6288 26.4645 50.2665 27.6872 48.9903 27.6872C48.101 27.6872 47.7408 27.0471 47.7408 26.3533C47.7408 24.3546 49.1838 23.1318 50.6288 22.2714V24.6324Z" fill="white"/>
<path d="M65.7896 8.94477C63.9287 8.94477 62.6236 9.69406 61.7364 10.888L61.4585 9.36058H57.5989L57.9324 12.2198V23.5765H62.5413V14.5809C62.5413 13.387 63.2083 12.4977 64.3466 12.4977C65.4849 12.4977 65.5693 13.387 65.5693 14.6632V23.5765H70.2339V13.8584C70.2339 10.4701 68.513 8.94271 65.7917 8.94271L65.7896 8.94477Z" fill="white"/>
<path d="M79.2562 20.5238C78.3113 20.5238 77.5909 20.1348 77.5909 18.6074V12.998H81.0615V9.36063H77.5909V4.28028H72.8975V18.4962C72.8975 21.2731 73.091 24.0212 77.8132 24.0212C79.3673 24.0212 80.8947 23.5498 81.7552 22.994L80.7548 20.0792C80.2834 20.3283 79.7832 20.5238 79.2562 20.5238Z" fill="white"/>
<path d="M89.4356 20.5505C87.7414 20.5505 86.7987 19.5233 86.6875 18.2738C89.4088 18.1071 93.9622 17.3022 93.9622 13.2758C93.9622 10.359 92.019 8.94271 89.1021 8.94271C84.3552 8.94271 81.9653 12.8312 81.9653 16.8576C81.9653 20.884 83.8818 24.0211 88.7686 24.0211C91.879 24.0211 93.9622 22.5781 94.1001 22.4382L92.8794 19.3834C91.9902 19.968 90.7695 20.5505 89.4356 20.5505ZM88.853 12.1931C89.52 12.1931 89.9358 12.6356 89.9358 13.3314C89.9358 14.6921 87.9638 15.3858 86.4652 15.4681C86.5475 13.5537 87.4635 12.1931 88.853 12.1931Z" fill="white"/>
<path d="M101.562 20.3838C100.673 20.3838 100.368 19.8013 100.368 18.5518V4.28028H95.7303V18.912C95.7303 21.5778 95.9793 24.0212 100.284 24.0212C101.533 24.0212 103.198 23.6321 104.172 22.994L103.172 19.9124C102.534 20.1903 101.978 20.3838 101.562 20.3838Z" fill="white"/>
<path d="M110.918 20.3838C110.029 20.3838 109.724 19.8013 109.724 18.5518V4.28028H105.086V18.912C105.086 21.5778 105.335 24.0212 109.64 24.0212C110.889 24.0212 112.554 23.6321 113.528 22.994L112.528 19.9124C111.889 20.1903 111.334 20.3838 110.918 20.3838Z" fill="white"/>
<path d="M119.432 9.36053H114.767V23.5785H119.432V9.36053Z" fill="white"/>
<path d="M117.099 7.61293C118.465 7.61293 119.572 6.58072 119.572 5.30742C119.572 4.03413 118.465 3.00192 117.099 3.00192C115.734 3.00192 114.627 4.03413 114.627 5.30742C114.627 6.58072 115.734 7.61293 117.099 7.61293Z" fill="white"/>
<path d="M130.28 16.275L134.805 9.36053H130.029L127.837 12.9711L125.78 9.36053H120.838L125.226 16.3306L120.393 23.5785H125.42L127.697 19.7456L129.947 23.5785H135L130.28 16.275Z" fill="white"/>
</svg>
