<svg width="306" height="171" viewBox="0 0 306 171" fill="none" xmlns="http://www.w3.org/2000/svg">
<path d="M103.709 40.7247V35.9185C103.709 35.4496 103.33 35.0651 102.856 35.0651H101.618C101.257 35.0651 100.933 34.8213 100.854 34.4649C100.427 32.5987 99.6956 30.8451 98.7109 29.2696C98.514 28.9554 98.5515 28.5475 98.8141 28.2849L99.6862 27.4127C100.019 27.0798 100.019 26.5406 99.6862 26.2077L96.2867 22.8082C95.9538 22.4752 95.4145 22.4752 95.0816 22.8082L94.2142 23.6756C93.9516 23.9382 93.5436 23.9757 93.2295 23.7788C91.6493 22.7941 89.9003 22.0626 88.0341 21.6359C87.6824 21.5562 87.4339 21.2327 87.4339 20.8716V19.6384C87.4339 19.1695 87.0541 18.785 86.5805 18.785H81.7743C81.3054 18.785 80.9209 19.1648 80.9209 19.6384V20.8716C80.9209 21.2327 80.6771 21.5562 80.3207 21.6359C78.4545 22.0626 76.7008 22.7941 75.1207 23.7788C74.8065 23.9757 74.3986 23.9382 74.136 23.6756L73.2685 22.8082C72.9356 22.4752 72.3964 22.4752 72.0634 22.8082L68.6639 26.2077C68.331 26.5406 68.331 27.0798 68.6639 27.4127L69.5314 28.2802C69.794 28.5428 69.8315 28.9507 69.6346 29.2649C68.6499 30.8451 67.9231 32.594 67.4917 34.4603C67.412 34.8119 67.0884 35.0604 66.7274 35.0604H65.4895C65.0206 35.0604 64.6361 35.4403 64.6361 35.9138V40.72C64.6361 41.1889 65.0159 41.5734 65.4895 41.5734H66.7274C67.0884 41.5734 67.412 41.8173 67.4917 42.1736C67.9184 44.0398 68.6499 45.7935 69.6346 47.369C69.8315 47.6832 69.794 48.0911 69.5314 48.3537L68.6593 49.2258C68.3263 49.5588 68.3263 50.098 68.6593 50.4309L72.0588 53.8304C72.3917 54.1633 72.9309 54.1633 73.2638 53.8304L74.136 52.9583C74.3986 52.6957 74.8065 52.6582 75.1207 52.8551C76.6962 53.8398 78.4498 54.5666 80.316 54.9933C80.6677 55.073 80.9162 55.3965 80.9162 55.7576V56.9955C80.9162 57.4644 81.296 57.8489 81.7696 57.8489H86.5758C87.0447 57.8489 87.4292 57.4691 87.4292 56.9955V55.7576C87.4292 55.3965 87.6777 55.073 88.0294 54.9933C89.8956 54.5666 91.6446 53.8351 93.2248 52.8551C93.539 52.6582 93.9469 52.6957 94.2095 52.9583L95.0816 53.8304C95.4145 54.1633 95.9538 54.1633 96.2867 53.8304L99.6862 50.4309C100.019 50.098 100.019 49.5588 99.6862 49.2258L98.8141 48.3537C98.5515 48.0911 98.514 47.6832 98.7109 47.369C99.6956 45.7935 100.422 44.0398 100.854 42.1736C100.933 41.8219 101.257 41.5734 101.618 41.5734H102.856C103.325 41.5734 103.709 41.1936 103.709 40.72V40.7247ZM84.1845 51.8704C76.7008 51.8704 70.6427 45.7982 70.6427 38.3146C70.6427 30.831 76.7008 24.7728 84.1845 24.7728C91.6681 24.7728 97.7262 30.8451 97.7262 38.3146C97.7262 45.7841 91.6681 51.8704 84.1845 51.8704Z" stroke="#DEE3FC" stroke-width="0.79" stroke-miterlimit="10"/>
<path d="M125.813 56.9908V53.7132C125.813 53.3944 125.555 53.1318 125.232 53.1318H124.388C124.139 53.1318 123.924 52.963 123.867 52.7239C123.577 51.4532 123.08 50.2575 122.409 49.1837C122.273 48.968 122.301 48.6914 122.479 48.5132L123.07 47.9224C123.295 47.6973 123.295 47.3269 123.07 47.1018L120.754 44.7854C120.529 44.5604 120.158 44.5604 119.933 44.7854L119.342 45.3763C119.164 45.5544 118.888 45.5826 118.672 45.4466C117.598 44.7761 116.402 44.279 115.132 43.9883C114.893 43.932 114.724 43.7164 114.724 43.4678V42.6285C114.724 42.3097 114.466 42.0471 114.142 42.0471H110.865C110.546 42.0471 110.283 42.305 110.283 42.6285V43.4678C110.283 43.7164 110.115 43.932 109.875 43.9883C108.605 44.279 107.409 44.7761 106.335 45.4466C106.12 45.5826 105.843 45.5544 105.665 45.3763L105.074 44.7854C104.849 44.5604 104.478 44.5604 104.253 44.7854L101.937 47.1018C101.712 47.3269 101.712 47.6973 101.937 47.9224L102.528 48.5132C102.706 48.6914 102.734 48.968 102.598 49.1837C101.928 50.2575 101.431 51.4532 101.14 52.7239C101.084 52.963 100.868 53.1318 100.619 53.1318H99.7754C99.4565 53.1318 99.1939 53.3897 99.1939 53.7132V56.9908C99.1939 57.3097 99.4518 57.5723 99.7754 57.5723H100.619C100.868 57.5723 101.084 57.7411 101.14 57.9802C101.431 59.2509 101.928 60.4466 102.598 61.5204C102.734 61.7361 102.706 62.0127 102.528 62.1909L101.937 62.7817C101.712 63.0068 101.712 63.3772 101.937 63.6023L104.253 65.9186C104.478 66.1437 104.849 66.1437 105.074 65.9186L105.669 65.3231C105.848 65.145 106.124 65.1168 106.34 65.2528C107.414 65.9233 108.609 66.4204 109.88 66.7111C110.119 66.7674 110.288 66.983 110.288 67.2316V68.0756C110.288 68.3944 110.546 68.657 110.869 68.657H114.147C114.466 68.657 114.728 68.3991 114.728 68.0756V67.2316C114.728 66.983 114.897 66.7674 115.136 66.7111C116.407 66.4204 117.603 65.9233 118.677 65.2528C118.892 65.1168 119.169 65.145 119.347 65.3231L119.943 65.9186C120.168 66.1437 120.538 66.1437 120.763 65.9186L123.08 63.6023C123.305 63.3772 123.305 63.0068 123.08 62.7817L122.484 62.1862C122.306 62.008 122.278 61.7314 122.414 61.5157C123.084 60.4419 123.581 59.2462 123.872 57.9755C123.928 57.7364 124.144 57.5676 124.392 57.5676H125.236C125.555 57.5676 125.818 57.3097 125.818 56.9862L125.813 56.9908ZM112.506 64.0665C107.695 64.0665 103.798 60.1606 103.798 55.3497C103.798 50.5388 107.695 46.6423 112.506 46.6423C117.317 46.6423 121.213 50.5482 121.213 55.3497C121.213 60.1512 117.317 64.0665 112.506 64.0665Z" fill="#DEE3FC"/>
<path d="M64.1392 143.714C65.0171 143.714 65.7288 143.002 65.7288 142.124C65.7288 141.246 65.0171 140.534 64.1392 140.534C63.2614 140.534 62.5497 141.246 62.5497 142.124C62.5497 143.002 63.2614 143.714 64.1392 143.714Z" fill="#A4AFFF"/>
<path d="M276.845 100.331C277.723 100.331 278.435 99.6195 278.435 98.7416C278.435 97.8637 277.723 97.1521 276.845 97.1521C275.967 97.1521 275.256 97.8637 275.256 98.7416C275.256 99.6195 275.967 100.331 276.845 100.331Z" fill="#A4AFFF"/>
<path d="M273.671 43.6367C274.549 43.6367 275.26 42.925 275.26 42.0471C275.26 41.1692 274.549 40.4576 273.671 40.4576C272.793 40.4576 272.081 41.1692 272.081 42.0471C272.081 42.925 272.793 43.6367 273.671 43.6367Z" fill="#A4AFFF"/>
<path d="M216.582 23.7743C217.131 23.7743 217.576 23.3293 217.576 22.7803C217.576 22.2313 217.131 21.7862 216.582 21.7862C216.033 21.7862 215.588 22.2313 215.588 22.7803C215.588 23.3293 216.033 23.7743 216.582 23.7743Z" fill="#A4AFFF"/>
<path d="M70.3521 9.51516C70.3521 10.0638 69.9066 10.5092 69.358 10.5092C68.8094 10.5092 68.364 10.0638 68.364 9.51516C68.364 8.96655 68.8094 8.5211 69.358 8.5211C69.9066 8.5211 70.3521 8.96655 70.3521 9.51516Z" fill="#A4AFFF"/>
<path d="M92.395 70.842C92.395 71.3906 91.9495 71.836 91.4009 71.836C90.8523 71.836 90.4068 71.3906 90.4068 70.842C90.4068 70.2934 90.8523 69.8479 91.4009 69.8479C91.9495 69.8479 92.395 70.2934 92.395 70.842Z" fill="#A4AFFF"/>
<path d="M55.8585 143.714C55.8585 144.262 55.413 144.708 54.8644 144.708C54.3158 144.708 53.8704 144.262 53.8704 143.714C53.8704 143.165 54.3158 142.72 54.8644 142.72C55.413 142.72 55.8585 143.165 55.8585 143.714Z" fill="#A4AFFF"/>
<path d="M253.555 144.656C254.433 144.656 255.145 143.944 255.145 143.066C255.145 142.189 254.433 141.477 253.555 141.477C252.677 141.477 251.966 142.189 251.966 143.066C251.966 143.944 252.677 144.656 253.555 144.656Z" fill="#A4AFFF"/>
<path d="M287.316 144.656C288.194 144.656 288.905 143.944 288.905 143.066C288.905 142.189 288.194 141.477 287.316 141.477C286.438 141.477 285.726 142.189 285.726 143.066C285.726 143.944 286.438 144.656 287.316 144.656Z" fill="#A4AFFF"/>
<path d="M97.7262 6.77203C98.6041 6.77203 99.3158 6.06036 99.3158 5.18247C99.3158 4.30458 98.6041 3.59291 97.7262 3.59291C96.8483 3.59291 96.1366 4.30458 96.1366 5.18247C96.1366 6.06036 96.8483 6.77203 97.7262 6.77203Z" fill="#A4AFFF"/>
<path d="M207.275 77.4209C207.275 78.5931 206.323 79.545 205.151 79.545C203.978 79.545 203.027 78.5931 203.027 77.4209C203.027 76.2487 203.978 75.2968 205.151 75.2968C206.323 75.2968 207.275 76.2487 207.275 77.4209Z" fill="#A4AFFF"/>
<path d="M50.5833 51.1532C50.5833 52.3255 49.6314 53.2773 48.4592 53.2773C47.2869 53.2773 46.3351 52.3255 46.3351 51.1532C46.3351 49.981 47.2869 49.0291 48.4592 49.0291C49.6314 49.0291 50.5833 49.981 50.5833 51.1532Z" fill="#A4AFFF"/>
<path d="M44.6095 16.1453H41.9321C41.7612 16.1453 41.6226 16.2839 41.6226 16.4548V19.1322C41.6226 19.3031 41.7612 19.4417 41.9321 19.4417H44.6095C44.7804 19.4417 44.919 19.3031 44.919 19.1322V16.4548C44.919 16.2839 44.7804 16.1453 44.6095 16.1453Z" fill="white"/>
<path d="M49.0173 16.1453H46.3399C46.1689 16.1453 46.0304 16.2839 46.0304 16.4548V19.1322C46.0304 19.3031 46.1689 19.4417 46.3399 19.4417H49.0173C49.1882 19.4417 49.3267 19.3031 49.3267 19.1322V16.4548C49.3267 16.2839 49.1882 16.1453 49.0173 16.1453Z" fill="white"/>
<path d="M53.4248 16.1453H50.7473C50.5764 16.1453 50.4379 16.2839 50.4379 16.4548V19.1322C50.4379 19.3031 50.5764 19.4417 50.7473 19.4417H53.4248C53.5957 19.4417 53.7342 19.3031 53.7342 19.1322V16.4548C53.7342 16.2839 53.5957 16.1453 53.4248 16.1453Z" fill="white"/>
<path d="M269.015 131.836H266.337C266.166 131.836 266.028 131.975 266.028 132.146V134.823C266.028 134.994 266.166 135.133 266.337 135.133H269.015C269.185 135.133 269.324 134.994 269.324 134.823V132.146C269.324 131.975 269.185 131.836 269.015 131.836Z" fill="#DEE3FC"/>
<path d="M273.422 131.836H270.745C270.574 131.836 270.435 131.975 270.435 132.146V134.823C270.435 134.994 270.574 135.133 270.745 135.133H273.422C273.593 135.133 273.732 134.994 273.732 134.823V132.146C273.732 131.975 273.593 131.836 273.422 131.836Z" fill="#DEE3FC"/>
<path d="M277.83 131.836H275.153C274.982 131.836 274.843 131.975 274.843 132.146V134.823C274.843 134.994 274.982 135.133 275.153 135.133H277.83C278.001 135.133 278.139 134.994 278.139 134.823V132.146C278.139 131.975 278.001 131.836 277.83 131.836Z" fill="#DEE3FC"/>
<path d="M65.2926 130.031H62.6152C62.4443 130.031 62.3057 130.17 62.3057 130.34V133.018C62.3057 133.189 62.4443 133.327 62.6152 133.327H65.2926C65.4635 133.327 65.6021 133.189 65.6021 133.018V130.34C65.6021 130.17 65.4635 130.031 65.2926 130.031Z" fill="#DEE3FC"/>
<path d="M69.7004 130.031H67.023C66.852 130.031 66.7135 130.17 66.7135 130.34V133.018C66.7135 133.189 66.852 133.327 67.023 133.327H69.7004C69.8713 133.327 70.0098 133.189 70.0098 133.018V130.34C70.0098 130.17 69.8713 130.031 69.7004 130.031Z" fill="#DEE3FC"/>
<path d="M74.1079 130.031H71.4305C71.2595 130.031 71.121 130.17 71.121 130.34V133.018C71.121 133.189 71.2595 133.327 71.4305 133.327H74.1079C74.2788 133.327 74.4173 133.189 74.4173 133.018V130.34C74.4173 130.17 74.2788 130.031 74.1079 130.031Z" fill="#DEE3FC"/>
<path d="M184.721 0.4046H121.279C115.75 0.4046 111.268 4.88666 111.268 10.4156V151.629C111.268 157.158 115.75 161.64 121.279 161.64H184.721C190.25 161.64 194.732 157.158 194.732 151.629V10.4156C194.732 4.88666 190.25 0.4046 184.721 0.4046Z" fill="#3945BA"/>
<path d="M184.397 1.8207H121.598C116.755 1.8207 112.829 5.74644 112.829 10.5891V150.583C112.829 155.426 116.755 159.351 121.598 159.351H184.397C189.24 159.351 193.166 155.426 193.166 150.583V10.5891C193.166 5.74644 189.24 1.8207 184.397 1.8207Z" fill="white"/>
<path d="M189.649 10.3124V150.142C189.649 153.42 186.99 156.079 183.713 156.079H122.282C119.005 156.079 116.346 153.42 116.346 150.142V10.3124C116.346 7.0348 119.005 4.37615 122.282 4.37615H132.528C133.095 4.37615 133.616 4.695 133.869 5.2061L134.957 7.37709C135.454 8.38053 136.476 9.00886 137.587 9.00886H168.403C169.514 9.00886 170.537 8.38053 171.034 7.37709L172.121 5.2061C172.375 4.69969 172.895 4.37615 173.462 4.37615H183.708C186.985 4.37615 189.644 7.0348 189.644 10.3124H189.649Z" fill="#DEE3FC"/>
<path d="M165.932 6.46253H141.113C140.537 6.46253 140.068 5.99364 140.068 5.41689C140.068 4.84015 140.537 4.37125 141.113 4.37125H165.932C166.509 4.37125 166.978 4.84015 166.978 5.41689C166.978 5.99364 166.509 6.46253 165.932 6.46253Z" fill="#DEE3FC"/>
<path d="M179.9 123.87H124.669C122.499 123.87 120.74 125.629 120.74 127.799V147.301C120.74 149.471 122.499 151.23 124.669 151.23H179.9C182.071 151.23 183.83 149.471 183.83 147.301V127.799C183.83 125.629 182.071 123.87 179.9 123.87Z" stroke="#698BD1" stroke-linecap="round" stroke-linejoin="round"/>
<path d="M177.101 64.8781H149.699C148.135 64.8781 146.867 66.1461 146.867 67.7102V81.2567C146.867 82.8208 148.135 84.0888 149.699 84.0888H177.101C178.665 84.0888 179.933 82.8208 179.933 81.2567V67.7102C179.933 66.1461 178.665 64.8781 177.101 64.8781Z" stroke="#698BD1" stroke-linecap="round" stroke-linejoin="round"/>
<path d="M182.995 88.6976H126.409C124.544 88.6976 123.033 90.2091 123.033 92.0736V115.941C123.033 117.805 124.544 119.317 126.409 119.317H182.995C184.86 119.317 186.371 117.805 186.371 115.941V92.0736C186.371 90.2091 184.86 88.6976 182.995 88.6976Z" fill="#4B5A9B"/>
<path d="M180.458 86.222H124.111C122.249 86.222 120.74 87.7314 120.74 89.5934V113.47C120.74 115.332 122.249 116.841 124.111 116.841H180.458C182.32 116.841 183.83 115.332 183.83 113.47V89.5934C183.83 87.7314 182.32 86.222 180.458 86.222Z" fill="#7F95F4"/>
<path d="M142.529 93.1898H125.93C124.672 93.1898 123.651 94.2101 123.651 95.4687V112.068C123.651 113.326 124.672 114.346 125.93 114.346H142.529C143.788 114.346 144.808 113.326 144.808 112.068V95.4687C144.808 94.2101 143.788 93.1898 142.529 93.1898Z" fill="white"/>
<path d="M162.209 95.8669H147.589C147.19 95.8669 146.867 95.5434 146.867 95.1448C146.867 94.7463 147.19 94.4227 147.589 94.4227H162.209C162.608 94.4227 162.931 94.7463 162.931 95.1448C162.931 95.5434 162.608 95.8669 162.209 95.8669Z" fill="#B2C1F9"/>
<path d="M155.546 98.7413H147.589C147.19 98.7413 146.866 98.4177 146.866 98.0192C146.866 97.6206 147.19 97.2971 147.589 97.2971H155.546C155.944 97.2971 156.268 97.6206 156.268 98.0192C156.268 98.4177 155.944 98.7413 155.546 98.7413Z" fill="#B2C1F9"/>
<path d="M180.003 98.7413H158.472C158.073 98.7413 157.75 98.4177 157.75 98.0192C157.75 97.6206 158.073 97.2971 158.472 97.2971H180.003C180.402 97.2971 180.725 97.6206 180.725 98.0192C180.725 98.4177 180.402 98.7413 180.003 98.7413Z" fill="#B2C1F9"/>
<path d="M159.897 101.616H147.584C147.185 101.616 146.862 101.292 146.862 100.893C146.862 100.495 147.185 100.171 147.584 100.171H159.897C160.296 100.171 160.619 100.495 160.619 100.893C160.619 101.292 160.296 101.616 159.897 101.616Z" fill="#B2C1F9"/>
<path d="M170.349 101.616H162.607C162.209 101.616 161.89 101.292 161.89 100.893C161.89 100.495 162.214 100.171 162.607 100.171H170.349C170.748 100.171 171.066 100.495 171.066 100.893C171.066 101.292 170.743 101.616 170.349 101.616Z" fill="#B2C1F9"/>
<path d="M180.004 101.616H172.876C172.478 101.616 172.154 101.292 172.154 100.893C172.154 100.495 172.478 100.171 172.876 100.171H180.004C180.402 100.171 180.726 100.495 180.726 100.893C180.726 101.292 180.402 101.616 180.004 101.616Z" fill="#B2C1F9"/>
<path d="M180.003 104.49H147.584C147.185 104.49 146.862 104.166 146.862 103.768C146.862 103.369 147.185 103.046 147.584 103.046H180.003C180.402 103.046 180.726 103.369 180.726 103.768C180.726 104.166 180.402 104.49 180.003 104.49Z" fill="#B2C1F9"/>
<path d="M165.43 107.365H147.589C147.19 107.365 146.866 107.041 146.866 106.643C146.866 106.244 147.19 105.921 147.589 105.921H165.43C165.829 105.921 166.152 106.244 166.152 106.643C166.152 107.041 165.829 107.365 165.43 107.365Z" fill="#B2C1F9"/>
<path d="M180.003 107.365H168.304C167.906 107.365 167.582 107.041 167.582 106.643C167.582 106.244 167.906 105.921 168.304 105.921H180.003C180.402 105.921 180.726 106.244 180.726 106.643C180.726 107.041 180.402 107.365 180.003 107.365Z" fill="#B2C1F9"/>
<path d="M158.068 110.239H147.584C147.185 110.239 146.862 109.915 146.862 109.516C146.862 109.118 147.185 108.794 147.584 108.794H158.068C158.467 108.794 158.791 109.118 158.791 109.516C158.791 109.915 158.467 110.239 158.068 110.239Z" fill="#B2C1F9"/>
<path d="M171.39 110.239H160.905C160.507 110.239 160.183 109.915 160.183 109.516C160.183 109.118 160.507 108.794 160.905 108.794H171.39C171.788 108.794 172.112 109.118 172.112 109.516C172.112 109.915 171.788 110.239 171.39 110.239Z" fill="#B2C1F9"/>
<path d="M180.003 110.239H173.922C173.523 110.239 173.2 109.915 173.2 109.516C173.2 109.118 173.523 108.794 173.922 108.794H180.003C180.402 108.794 180.726 109.118 180.726 109.516C180.726 109.915 180.402 110.239 180.003 110.239Z" fill="#B2C1F9"/>
<path d="M162.209 113.113H147.589C147.19 113.113 146.866 112.789 146.866 112.391C146.866 111.992 147.19 111.669 147.589 111.669H162.209C162.607 111.669 162.931 111.992 162.931 112.391C162.931 112.789 162.607 113.113 162.209 113.113Z" fill="#B2C1F9"/>
<path d="M180.003 95.8669H165.383C164.985 95.8669 164.661 95.5434 164.661 95.1448C164.661 94.7463 164.985 94.4227 165.383 94.4227H180.003C180.402 94.4227 180.725 94.7463 180.725 95.1448C180.725 95.5434 180.402 95.8669 180.003 95.8669Z" fill="#B2C1F9"/>
<path d="M183.83 89.5934V90.5968H120.74V89.5934C120.74 87.7318 122.249 86.222 124.111 86.222H180.458C182.32 86.222 183.83 87.7318 183.83 89.5934Z" fill="#3052CE"/>
<path d="M171.939 88.4868C171.939 88.9182 171.587 89.2698 171.156 89.2698C170.724 89.2698 170.372 88.9182 170.372 88.4868C170.372 88.0554 170.724 87.7037 171.156 87.7037C171.587 87.7037 171.939 88.0554 171.939 88.4868Z" fill="#DEE3FC"/>
<path d="M175.934 88.4868C175.934 88.9182 175.582 89.2698 175.151 89.2698C174.719 89.2698 174.368 88.9182 174.368 88.4868C174.368 88.0554 174.719 87.7037 175.151 87.7037C175.582 87.7037 175.934 88.0554 175.934 88.4868Z" fill="#DEE3FC"/>
<path d="M179.933 88.4868C179.933 88.9182 179.581 89.2698 179.15 89.2698C178.719 89.2698 178.367 88.9182 178.367 88.4868C178.367 88.0554 178.719 87.7037 179.15 87.7037C179.581 87.7037 179.933 88.0554 179.933 88.4868Z" fill="#DEE3FC"/>
<path d="M140.269 64.8967H127.783C125.931 64.8967 124.43 66.3977 124.43 68.2493V80.7361C124.43 82.5877 125.931 84.0887 127.783 84.0887H140.269C142.121 84.0887 143.622 82.5877 143.622 80.7361V68.2493C143.622 66.3977 142.121 64.8967 140.269 64.8967Z" stroke="#495AD6" stroke-width="0.9" stroke-miterlimit="10"/>
<path d="M131.032 71.7191L128.27 74.4809L131.056 77.2708" stroke="#495AD6" stroke-width="1.67" stroke-linecap="round" stroke-linejoin="round"/>
<path d="M137.02 71.7191L139.786 74.4809L137.001 77.2708" stroke="#495AD6" stroke-width="1.67" stroke-linecap="round" stroke-linejoin="round"/>
<path d="M135.322 71.7191L132.734 77.2708" stroke="#495AD6" stroke-width="1.67" stroke-linecap="round" stroke-linejoin="round"/>
<path d="M183.83 18.0539V57.099C183.83 59.2184 182.114 60.9346 179.994 60.9346H124.575C122.46 60.9346 120.74 59.2184 120.74 57.099V18.0539C120.74 15.9345 122.46 14.2183 124.575 14.2183H179.994C182.114 14.2183 183.83 15.9345 183.83 18.0539Z" fill="#B2C1F9"/>
<path d="M171.052 35.6985C176.102 35.6985 180.196 31.6048 180.196 26.555C180.196 21.5052 176.102 17.4115 171.052 17.4115C166.003 17.4115 161.909 21.5052 161.909 26.555C161.909 31.6048 166.003 35.6985 171.052 35.6985Z" fill="#F0F4FF"/>
<path d="M157.825 60.9347H124.575C122.46 60.9347 120.74 59.2186 120.74 57.0991V50.9519L135.29 25.7487C136.049 24.4311 137.953 24.4311 138.712 25.7487L149.699 44.7765L157.858 58.9091C158.251 59.5843 158.19 60.3533 157.825 60.9347Z" fill="white"/>
<path d="M172.164 60.9345H140.368L149.699 44.7763L154.725 36.0689C155.41 34.8826 157.121 34.8826 157.806 36.0689L172.164 60.9345Z" fill="#F0F4FF"/>
<path d="M235.23 133.487H210.716V170.323H235.23V133.487Z" fill="#3B47BC"/>
<path d="M235.226 170.318H244.613V133.482H235.226L235.226 170.318Z" fill="#495AD6"/>
<path d="M243.464 134.898H236.571V136.075H243.464V134.898Z" fill="#B2C1F9"/>
<path d="M243.464 137.425H236.571V138.602H243.464V137.425Z" fill="#B2C1F9"/>
<path d="M243.464 139.952H236.571V141.129H243.464V139.952Z" fill="#B2C1F9"/>
<path d="M243.464 142.475H236.571V143.652H243.464V142.475Z" fill="#B2C1F9"/>
<path d="M243.464 145.003H236.571V146.18H243.464V145.003Z" fill="#B2C1F9"/>
<path d="M243.464 147.525H236.571V148.702H243.464V147.525Z" fill="#B2C1F9"/>
<path d="M243.464 150.052H236.571V151.229H243.464V150.052Z" fill="#B2C1F9"/>
<path d="M243.464 152.58H236.571V153.757H243.464V152.58Z" fill="#B2C1F9"/>
<path d="M243.464 155.103H236.571V156.28H243.464V155.103Z" fill="#B2C1F9"/>
<path d="M243.464 157.63H236.571V158.807H243.464V157.63Z" fill="#B2C1F9"/>
<path d="M243.464 160.158H236.571V161.334H243.464V160.158Z" fill="#B2C1F9"/>
<path d="M243.464 162.68H236.571V163.857H243.464V162.68Z" fill="#B2C1F9"/>
<path d="M243.464 165.207H236.571V166.384H243.464V165.207Z" fill="#B2C1F9"/>
<path d="M243.464 167.73H236.571V168.907H243.464V167.73Z" fill="#B2C1F9"/>
<path d="M206.735 170.323H219.194C219.194 170.323 219.888 168.105 218.383 165.358C218.383 165.358 217.379 166.164 214.379 165.62C214.379 165.62 213.127 166.685 212.259 167.102C211.387 167.524 206.403 168.504 206.74 170.328L206.735 170.323Z" fill="#281616"/>
<path d="M207.603 135.194C208.409 139.995 212.118 156.238 213.717 165.831C216.634 166.08 218.036 165.747 218.777 165.574C218.631 162.226 218.345 154.221 218.378 150.714C218.435 144.783 218.711 136.961 216.099 132.666L207.317 133.356C207.369 133.82 207.42 134.195 207.462 134.467C207.505 134.725 207.551 134.964 207.603 135.189V135.194Z" fill="#002C54"/>
<path d="M184.2 170.323H196.659C196.659 170.323 197.353 168.105 195.848 165.358C195.848 165.358 194.844 166.164 191.843 165.62C191.843 165.62 190.591 166.685 189.724 167.102C188.852 167.524 183.867 168.504 184.205 170.328L184.2 170.323Z" fill="#281616"/>
<path d="M191.478 165.554C193.86 166.145 195.58 166.084 196.396 165.995C197.057 162.136 198.103 153.654 199.046 149.673C200.509 143.488 201.939 134.987 200.945 131.953L192.308 129.782C192.279 130.054 191.576 156.078 191.478 165.554Z" fill="#052635"/>
<path d="M225.857 120.93C225.684 119.223 225.482 117.976 225.482 117.976L215.832 120.339L207.636 122.205C204.597 122.88 200.926 123.696 197.691 124.428C194.057 125.253 191.646 128.01 192.444 131.649L193.353 136.061C198.431 135.991 222.317 133.703 224.357 132.671C226.664 131.503 227.358 127.387 225.857 120.93Z" fill="#052635"/>
<path d="M240.262 120.93C240.088 119.223 239.258 117.389 239.258 117.389L230.241 120.334L222.045 122.2C219.006 122.876 215.335 123.691 212.1 124.423C208.466 125.248 206.056 128.005 206.853 131.644L207.762 136.056C212.84 135.986 234.072 135.245 238.766 132.666C241.031 131.419 241.767 127.382 240.266 120.925L240.262 120.93Z" fill="#002C54"/>
<path d="M213.248 107.102C213.248 107.102 217.534 105.166 218.716 107.107C219.363 108.171 218.913 110.145 217.454 110.975C215.991 111.805 207.734 115.298 199.936 117.244C199.936 117.244 199.603 116.161 199.069 115.022C199.069 115.022 202.567 113.573 206.041 111.13C209.521 108.687 213.253 107.102 213.253 107.102H213.248Z" fill="#E5918F"/>
<path d="M214.322 93.7149L210.651 108.387C210.651 108.387 211.031 112.096 214.777 110.276C218.524 108.457 221.004 96.7674 221.004 96.7674L214.322 93.7149Z" fill="#E5918F"/>
<path d="M220.535 101.921C220.08 101.813 219.649 101.691 219.227 101.564C218.8 101.438 218.392 101.306 218.003 101.17C214.514 99.9747 212.625 98.5351 212.625 98.5351C213.722 93.7665 215.044 90.5592 216.221 88.4492C216.254 88.3976 216.282 88.3507 216.31 88.2944C216.343 88.2428 216.371 88.1913 216.404 88.1397C217.037 87.0894 217.947 86.2078 218.96 85.481C219.063 85.406 219.161 85.3404 219.269 85.2653L219.7 92.9271L219.775 93.7149L220.535 101.921Z" fill="white"/>
<path d="M220.535 101.92C220.08 101.813 219.649 101.691 219.227 101.564C218.8 101.438 218.392 101.306 218.003 101.17C218.735 96.0124 219.4 92.7676 219.4 92.7676L219.776 93.7148L220.535 101.92Z" fill="#C7E5F2"/>
<path d="M242.222 88.6744C242.133 90.9439 241.734 94.5825 241.392 98.2399C241.284 99.3981 241.176 100.566 241.087 101.691C241.026 102.39 239.971 106.127 239.929 106.797C239.741 109.995 238.175 112.387 239.657 117.258C240.013 118.426 240.102 119.026 240.102 119.504C240.102 119.837 239.671 120.189 239.497 120.283C238.874 120.644 237.655 120.892 236.168 121.075H236.164C233.242 121.432 229.304 121.497 226.926 121.497C223.733 121.497 218.941 120.991 218.336 120.184C217.783 119.448 218.294 118.374 218.556 116.897C219.733 110.225 219.316 106.746 219.241 101.925C219.241 101.804 219.236 101.686 219.236 101.56C219.114 94.1277 218.627 87.7695 218.969 85.4766C219.072 85.4015 219.171 85.3359 219.279 85.2609C219.785 84.9139 220.282 84.6091 220.76 84.3371C220.802 84.3184 220.854 84.2856 220.906 84.2527C221.051 84.1683 221.206 84.0886 221.346 84.0136C221.398 83.9808 221.454 83.9573 221.515 83.9292C222.598 83.3993 224.174 82.8367 225.079 82.5225C225.196 82.485 225.299 82.4475 225.388 82.424C226.242 82.3725 227.165 82.3631 228.164 82.3865C229.032 82.4147 230.359 82.5272 231.803 82.7147H231.808C233.439 82.9257 235.221 83.2305 236.637 83.6197C236.637 83.6197 236.651 83.6244 236.665 83.6291C236.933 83.7135 238.663 84.3606 240.463 86.2877C241.064 86.9255 241.682 87.7085 242.236 88.6651L242.222 88.6744Z" fill="white"/>
<path d="M239.657 117.258C240.013 118.426 240.102 119.026 240.102 119.504C240.102 119.837 239.671 120.189 239.497 120.283C238.874 120.644 237.655 120.892 236.168 121.075C236.778 121 237.833 120.034 237.833 119.157C237.833 118.543 237.04 114.407 237.256 111.739C237.476 109.076 237.908 104.832 237.082 101.433C236.253 98.038 235.474 93.5694 235.474 93.5694L240.13 96.3828C240.13 96.3828 240.73 97.2222 241.392 98.2443C241.284 99.4025 241.176 100.57 241.087 101.695C241.026 102.394 238.17 112.391 239.657 117.263V117.258Z" fill="#C7E5F2"/>
<path d="M219.175 69.0368C219.175 69.0368 219.579 73.9039 221.192 74.2321C222.805 74.5604 222.411 72.4925 222.411 72.4925L222.186 70.1809L219.175 69.0368Z" fill="#002C54"/>
<path d="M226.617 86.6861C223.456 86.311 224.638 83.2397 225.069 82.5317C225.187 82.4942 225.726 82.3301 225.768 82.3019C225.773 82.2973 225.777 82.2973 225.777 82.2973C225.881 82.2129 225.96 82.0863 226.021 81.9315C226.331 81.1203 226.19 79.5073 226.176 79.4042V79.1041C226.228 78.9118 226.279 78.7289 226.321 78.5555L227.981 77.2472L231.498 74.4807C231.498 74.4807 230.565 79.1041 231.315 82.0206C231.371 82.241 231.489 82.5505 231.779 82.7193C231.779 82.724 231.784 82.7193 231.784 82.7193C231.878 82.7802 231.995 82.8224 232.136 82.8459C232.999 83.2538 231.798 87.2957 226.607 86.6814L226.617 86.6861Z" fill="#E5918F"/>
<path d="M229.407 77.4207C229.407 77.4207 229.378 80.506 226.026 81.9268C226.335 81.1203 226.195 79.5073 226.185 79.4041L227.587 78.3022L229.407 77.4254V77.4207Z" fill="#CC6362"/>
<path d="M219.944 69.7306C219.944 69.7306 220.676 79.8353 223.405 80.6934C223.405 80.6934 226.879 81.0217 229.374 77.6643C230.091 76.6984 231.001 76.478 231.296 75.3105C231.779 73.4114 232.459 69.9135 231.592 67.8034C230.359 64.8025 220.062 62.4158 219.944 69.7306Z" fill="#E5918F"/>
<path d="M231.639 66.1391C231.592 64.3057 229.735 63.6164 229.735 63.6164C227.887 62.7489 224.042 63.124 220.08 64.0103C219.152 64.2166 217.984 63.6492 217.337 64.0994C216.554 64.6433 217.337 67.1284 217.337 67.1284C218.866 71.7565 224.488 70.2513 226.181 69.6792C226.584 70.8702 226.532 72.5254 227.531 73.3835C228.103 73.8712 229.092 73.8852 230.105 73.7164C230.227 73.9509 230.696 74.1619 230.79 74.4854C231.109 75.5686 231.062 77.2613 231.052 78.5648L231.531 78.3304C231.592 77.9787 236.524 66.2938 231.643 66.1391H231.639Z" fill="#002C54"/>
<path d="M222.744 73.1303C222.884 73.9696 222.472 74.7386 221.82 74.8511C221.168 74.9637 220.521 74.3728 220.38 73.5335C220.24 72.6942 220.652 71.9252 221.304 71.8127C221.956 71.7001 222.603 72.2909 222.744 73.1303Z" stroke="white" stroke-width="0.5" stroke-miterlimit="10"/>
<path d="M226.04 72.516C226.181 73.3553 225.768 74.1243 225.116 74.2369C224.464 74.3494 223.817 73.7586 223.677 72.9193C223.536 72.0799 223.949 71.3109 224.6 71.1984C225.252 71.0859 225.899 71.6767 226.04 72.516Z" stroke="white" stroke-width="0.5" stroke-miterlimit="10"/>
<path d="M222.744 73.1304C222.744 73.1304 222.889 72.896 223.649 72.9616" stroke="white" stroke-width="0.5" stroke-miterlimit="10"/>
<path d="M226.068 72.7173L228.886 72.2672" stroke="white" stroke-width="0.5" stroke-miterlimit="10"/>
<path d="M229.093 75.8455C231.034 76.591 231.639 71.813 229.796 71.602C228.399 71.4425 228.342 73.3931 228.342 73.3931C228.342 73.3931 227.986 75.4235 229.093 75.8502V75.8455Z" fill="#E5918F"/>
<g opacity="0.5">
<path d="M229.735 72.3191C229.735 72.3191 229.608 72.4504 229.496 72.6614C229.379 72.8724 229.28 73.1631 229.261 73.4773C229.243 73.632 229.247 73.7915 229.257 73.9415C229.261 74.0915 229.28 74.2369 229.289 74.3588C229.304 74.4854 229.313 74.5933 229.322 74.6683C229.332 74.7433 229.332 74.7902 229.332 74.7902C229.332 74.7902 229.304 74.7574 229.261 74.6917C229.224 74.6261 229.153 74.537 229.102 74.4151C229.046 74.2932 228.989 74.1478 228.961 73.9837C228.924 73.8196 228.914 73.6367 228.928 73.4492C228.947 73.2663 228.994 73.0834 229.069 72.924C229.144 72.7646 229.252 72.638 229.35 72.5442C229.561 72.3613 229.744 72.3238 229.744 72.3238L229.735 72.3191Z" fill="#CC6362"/>
<path d="M230.035 73.2241C230.035 73.2241 229.955 73.2335 229.848 73.2757C229.74 73.3132 229.604 73.3929 229.505 73.4913C229.402 73.5945 229.336 73.7164 229.304 73.8149C229.266 73.9134 229.257 73.979 229.257 73.979L228.938 73.8665C228.938 73.8665 228.975 73.7868 229.055 73.6789C229.13 73.5711 229.257 73.4398 229.407 73.3554C229.557 73.271 229.721 73.2288 229.843 73.2241C229.965 73.2147 230.044 73.2241 230.044 73.2241H230.035Z" fill="#CC6362"/>
</g>
<path d="M247.75 109.034C246.896 110.028 243.661 110.75 242.104 109.381C241.617 108.945 241.063 107.796 240.519 106.371C239.141 102.727 237.833 97.2739 237.833 97.2739L245.077 93.5743C245.077 93.5743 246.01 97.7522 246.812 101.724C246.812 101.724 246.821 101.766 246.836 101.836C247.098 103.107 247.342 104.359 247.53 105.433C247.539 105.461 247.539 105.489 247.544 105.517C247.736 106.797 247.858 108.134 247.755 109.039L247.75 109.034Z" fill="#E5918F"/>
<path d="M235.099 92.2004C235.798 95.1076 237.997 100.622 237.997 100.622C239.535 100.88 241.603 100.594 243.314 99.9794C245.288 99.2714 246.7 97.7803 246.7 97.7803C246.7 97.7803 245.241 93.6822 243.933 90.7375C242.761 88.0929 242.053 87.1082 241.547 86.583C240.782 85.7812 239.544 84.8622 238.672 84.4449L235.104 92.2004H235.099Z" fill="white"/>
<path d="M244.257 94.0992L240.008 92.2658L236.661 83.6381C236.661 83.6381 237.275 83.8257 238.081 84.1492C238.081 84.1492 238.133 84.168 238.189 84.1914C238.208 84.2008 238.231 84.2055 238.25 84.2196C238.972 84.5572 241.772 86.2077 243.713 92.2049C243.727 92.2565 243.746 92.308 243.76 92.3549C243.966 93.0442 244.116 93.6022 244.2 93.8882C244.21 93.9164 244.214 93.9445 244.224 93.9726C244.233 94.0101 244.243 94.0523 244.257 94.0945V94.0992Z" fill="white"/>
<path d="M247.75 109.034C247.689 109.568 247.544 109.948 247.281 110.084C247.239 110.112 246.643 110.464 246.601 110.492C245.715 111.031 244.111 111.955 242.114 112.813C237.27 114.904 230.232 117.333 226.438 118.444C226.438 118.444 226.063 117.371 225.477 116.255C225.477 116.255 228.91 114.66 232.281 112.077C235.657 109.498 240.519 106.366 240.519 106.366L241.748 104.921C241.748 104.921 246.109 100.908 246.812 101.714C246.812 101.714 246.821 101.756 246.835 101.827C246.939 102.244 247.286 103.787 247.529 105.423C247.539 105.451 247.539 105.479 247.544 105.508C247.736 106.788 247.858 108.124 247.755 109.029L247.75 109.034Z" fill="#E5918F"/>
<path d="M225.979 116.011C225.979 116.011 225.126 116.526 224.258 116.344C223.775 116.24 223.583 116.048 223.227 115.983C222.87 115.922 221.923 115.804 221.454 115.575C220.985 115.345 220.802 115.317 220.821 115.79C220.835 116.259 221.764 116.667 222.012 116.798C222.261 116.93 222.579 117.347 222.612 117.399C222.645 117.45 221.07 118.275 220.648 118.107C220.648 118.107 220.521 118.486 220.591 118.697C220.662 118.908 220.985 118.984 221.013 119.091C221.037 119.199 220.938 119.415 221.013 119.584C221.084 119.753 221.374 119.753 221.492 120.029C221.609 120.306 221.482 120.306 221.567 120.592C221.651 120.878 222.017 120.929 222.087 121.075C222.157 121.22 222.12 121.394 222.275 121.497C222.429 121.6 223.845 121.145 224.361 120.92C224.877 120.7 226.26 118.707 227.789 118.032L225.988 116.011H225.979Z" fill="#E5918F"/>
<path d="M233.219 124.892H222.2V123.814H233.219C233.514 123.814 233.758 124.053 233.758 124.353C233.758 124.648 233.519 124.892 233.219 124.892Z" fill="#375F84"/>
<path d="M227.259 124.892H199.674C199.346 124.892 199.055 124.672 198.966 124.353L193.32 104.026C193.194 103.576 193.536 103.13 194 103.13H220.676C221.3 103.13 221.843 103.543 222.008 104.143L227.634 124.395C227.705 124.643 227.517 124.887 227.259 124.887V124.892Z" fill="#375F84"/>
<path d="M226.26 124.892H198.675C198.347 124.892 198.056 124.672 197.967 124.353L192.322 104.026C192.195 103.576 192.537 103.13 193.002 103.13H219.677C220.301 103.13 220.845 103.543 221.009 104.143L226.636 124.395C226.706 124.643 226.518 124.887 226.26 124.887V124.892Z" fill="#467CDB"/>
<path d="M270.782 60.9345H245.903C244.308 60.9345 243.014 62.2286 243.014 63.8229V69.7028C243.014 71.1752 244.116 72.3896 245.537 72.5678C245.743 72.5959 245.903 72.7694 245.903 72.9804V76.1971C245.903 76.3846 246.142 76.4597 246.25 76.3096L248.786 72.7648C248.866 72.6522 248.993 72.5913 249.129 72.5913H270.787C272.381 72.5913 273.675 71.2971 273.675 69.7028V63.8229C273.675 62.2286 272.381 60.9345 270.787 60.9345H270.782Z" stroke="white" stroke-width="0.9" stroke-miterlimit="10"/>
<path d="M249.719 66.7533C249.719 67.2784 249.293 67.7051 248.768 67.7051C248.242 67.7051 247.816 67.2784 247.816 66.7533C247.816 66.2281 248.242 65.8014 248.768 65.8014C249.293 65.8014 249.719 66.2281 249.719 66.7533Z" stroke="white" stroke-width="0.9" stroke-miterlimit="10"/>
<path d="M254.507 66.7533C254.507 67.2784 254.08 67.7051 253.555 67.7051C253.03 67.7051 252.603 67.2784 252.603 66.7533C252.603 66.2281 253.03 65.8014 253.555 65.8014C254.08 65.8014 254.507 66.2281 254.507 66.7533Z" stroke="white" stroke-width="0.9" stroke-miterlimit="10"/>
<path d="M259.289 66.7533C259.289 67.2784 258.863 67.7051 258.338 67.7051C257.812 67.7051 257.386 67.2784 257.386 66.7533C257.386 66.2281 257.812 65.8014 258.338 65.8014C258.863 65.8014 259.289 66.2281 259.289 66.7533Z" stroke="white" stroke-width="0.9" stroke-miterlimit="10"/>
<path d="M264.077 66.7533C264.077 67.2784 263.65 67.7051 263.125 67.7051C262.6 67.7051 262.173 67.2784 262.173 66.7533C262.173 66.2281 262.6 65.8014 263.125 65.8014C263.65 65.8014 264.077 66.2281 264.077 66.7533Z" stroke="white" stroke-width="0.9" stroke-miterlimit="10"/>
<path d="M268.864 66.7533C268.864 67.2784 268.438 67.7051 267.913 67.7051C267.387 67.7051 266.961 67.2784 266.961 66.7533C266.961 66.2281 267.387 65.8014 267.913 65.8014C268.438 65.8014 268.864 66.2281 268.864 66.7533Z" stroke="white" stroke-width="0.9" stroke-miterlimit="10"/>
<path d="M74.1735 86.705H99.0532C100.647 86.705 101.942 87.9991 101.942 89.5934V95.4733C101.942 96.9457 100.84 98.1601 99.419 98.3383C99.2126 98.3664 99.0532 98.5399 99.0532 98.7509V101.968C99.0532 102.155 98.8141 102.23 98.7062 102.08L96.1695 98.5352C96.0898 98.4227 95.9632 98.3617 95.8272 98.3617H74.1688C72.5746 98.3617 71.2804 97.0676 71.2804 95.4733V89.5934C71.2804 87.9991 72.5746 86.705 74.1688 86.705H74.1735Z" stroke="white" stroke-width="0.9" stroke-miterlimit="10"/>
<path d="M95.2363 92.5194C95.2363 93.0445 95.663 93.4712 96.1882 93.4712C96.7134 93.4712 97.1401 93.0445 97.1401 92.5194C97.1401 91.9942 96.7134 91.5675 96.1882 91.5675C95.663 91.5675 95.2363 91.9942 95.2363 92.5194Z" stroke="white" stroke-width="0.9" stroke-miterlimit="10"/>
<path d="M90.449 92.5194C90.449 93.0445 90.8757 93.4712 91.4008 93.4712C91.926 93.4712 92.3527 93.0445 92.3527 92.5194C92.3527 91.9942 91.926 91.5675 91.4008 91.5675C90.8757 91.5675 90.449 91.9942 90.449 92.5194Z" stroke="white" stroke-width="0.9" stroke-miterlimit="10"/>
<path d="M85.6614 92.5194C85.6614 93.0445 86.0881 93.4712 86.6132 93.4712C87.1384 93.4712 87.5651 93.0445 87.5651 92.5194C87.5651 91.9942 87.1384 91.5675 86.6132 91.5675C86.0881 91.5675 85.6614 91.9942 85.6614 92.5194Z" stroke="white" stroke-width="0.9" stroke-miterlimit="10"/>
<path d="M80.874 92.5194C80.874 93.0445 81.3007 93.4712 81.8259 93.4712C82.351 93.4712 82.7777 93.0445 82.7777 92.5194C82.7777 91.9942 82.351 91.5675 81.8259 91.5675C81.3007 91.5675 80.874 91.9942 80.874 92.5194Z" stroke="white" stroke-width="0.9" stroke-miterlimit="10"/>
<path d="M76.0866 92.5194C76.0866 93.0445 76.5133 93.4712 77.0385 93.4712C77.5637 93.4712 77.9904 93.0445 77.9904 92.5194C77.9904 91.9942 77.5637 91.5675 77.0385 91.5675C76.5133 91.5675 76.0866 91.9942 76.0866 92.5194Z" stroke="white" stroke-width="0.9" stroke-miterlimit="10"/>
<path d="M224.441 47.3742H179.089C176.59 47.3742 174.56 45.3485 174.56 42.8446C174.56 40.3454 176.585 38.3151 179.089 38.3151H224.441C226.94 38.3151 228.971 40.3407 228.971 42.8446C228.971 45.3438 226.945 47.3742 224.441 47.3742Z" fill="white" stroke="#495AD6" stroke-width="0.9" stroke-miterlimit="10"/>
<path d="M223.775 42.5351C223.775 43.8668 222.697 44.9452 221.365 44.9452C220.034 44.9452 218.955 43.8668 218.955 42.5351C218.955 41.2034 220.034 40.125 221.365 40.125C222.697 40.125 223.775 41.2034 223.775 42.5351Z" stroke="#495AD6" stroke-width="1.67" stroke-miterlimit="10"/>
<path d="M223.067 44.2371L224.399 45.5641" stroke="#495AD6" stroke-width="1.67" stroke-miterlimit="10" stroke-linecap="round"/>
<path d="M155.743 151.905H144.335C142.338 151.905 140.72 153.524 140.72 155.521V166.929C140.72 168.925 142.338 170.544 144.335 170.544H155.743C157.74 170.544 159.358 168.925 159.358 166.929V155.521C159.358 153.524 157.74 151.905 155.743 151.905Z" fill="#193091"/>
<path d="M152.348 151.905H140.94C138.943 151.905 137.325 153.524 137.325 155.521V166.929C137.325 168.925 138.943 170.544 140.94 170.544H152.348C154.345 170.544 155.963 168.925 155.963 166.929V155.521C155.963 153.524 154.345 151.905 152.348 151.905Z" fill="#495AD6"/>
<path d="M144.438 157.706L149.788 160.796C150.116 160.988 150.116 161.462 149.788 161.654L144.438 164.744C144.11 164.936 143.697 164.697 143.697 164.317V158.142C143.697 157.762 144.11 157.523 144.438 157.715V157.706Z" fill="white"/>
<path d="M273.755 146.18H258.844C256.234 146.18 254.118 148.296 254.118 150.907V165.818C254.118 168.428 256.234 170.544 258.844 170.544H273.755C276.366 170.544 278.482 168.428 278.482 165.818V150.907C278.482 148.296 276.366 146.18 273.755 146.18Z" fill="#193091"/>
<path d="M269.315 146.18H254.404C251.793 146.18 249.677 148.296 249.677 150.907V165.818C249.677 168.428 251.793 170.544 254.404 170.544H269.315C271.925 170.544 274.041 168.428 274.041 165.818V150.907C274.041 148.296 271.925 146.18 269.315 146.18Z" fill="#495AD6"/>
<path d="M264.785 152.154C264.785 153.772 263.477 155.08 261.859 155.08C260.242 155.08 258.933 153.767 258.933 152.154C258.933 150.541 260.242 149.228 261.859 149.228C263.477 149.228 264.785 150.541 264.785 152.154Z" fill="white"/>
<path d="M267.96 162.066V166.39C267.96 166.779 267.646 167.098 267.252 167.098H256.462C256.073 167.098 255.754 166.779 255.754 166.39V162.066C255.754 158.695 258.488 155.966 261.855 155.966C265.226 155.966 267.955 158.7 267.955 162.066H267.96Z" fill="white"/>
<path d="M207.374 52.5928H197.794C197.395 52.5928 197.077 52.2693 197.077 51.8707C197.077 51.4722 197.4 51.1486 197.794 51.1486H207.374C207.772 51.1486 208.096 51.4722 208.096 51.8707C208.096 52.2693 207.772 52.5928 207.374 52.5928Z" fill="#F0F4FF"/>
<path d="M216.958 52.5928H210.028C209.629 52.5928 209.305 52.2693 209.305 51.8707C209.305 51.4722 209.629 51.1486 210.028 51.1486H216.958C217.356 51.1486 217.68 51.4722 217.68 51.8707C217.68 52.2693 217.356 52.5928 216.958 52.5928Z" fill="#F0F4FF"/>
<path d="M201.864 55.7581H197.794C197.395 55.7581 197.077 55.4346 197.077 55.036C197.077 54.6374 197.4 54.3139 197.794 54.3139H201.864C202.263 54.3139 202.586 54.6374 202.586 55.036C202.586 55.4346 202.263 55.7581 201.864 55.7581Z" fill="#F0F4FF"/>
<path d="M216.958 55.7581H204.284C203.885 55.7581 203.561 55.4346 203.561 55.036C203.561 54.6374 203.885 54.3139 204.284 54.3139H216.958C217.356 54.3139 217.68 54.6374 217.68 55.036C217.68 55.4346 217.356 55.7581 216.958 55.7581Z" fill="#F0F4FF"/>
<path d="M210.421 58.9229H197.794C197.395 58.9229 197.077 58.5994 197.077 58.2008C197.077 57.8022 197.4 57.4787 197.794 57.4787H210.421C210.82 57.4787 211.143 57.8022 211.143 58.2008C211.143 58.5994 210.82 58.9229 210.421 58.9229Z" fill="#F0F4FF"/>
<path d="M216.958 58.9229H212.888C212.489 58.9229 212.166 58.5994 212.166 58.2008C212.166 57.8022 212.489 57.4787 212.888 57.4787H216.958C217.357 57.4787 217.68 57.8022 217.68 58.2008C217.68 58.5994 217.357 58.9229 216.958 58.9229Z" fill="#F0F4FF"/>
<path d="M86.0791 105.644H52.6373C51.6481 105.644 50.8462 106.446 50.8462 107.435V124.32C50.8462 125.309 51.6481 126.111 52.6373 126.111H86.0791C87.0684 126.111 87.8703 125.309 87.8703 124.32V107.435C87.8703 106.446 87.0684 105.644 86.0791 105.644Z" fill="#193091"/>
<path d="M52.417 108.41H86.2949" stroke="white" stroke-width="0.9" stroke-miterlimit="10" stroke-linecap="round"/>
<path d="M85.4039 107.411C85.6292 107.411 85.8118 107.229 85.8118 107.003C85.8118 106.778 85.6292 106.596 85.4039 106.596C85.1786 106.596 84.9959 106.778 84.9959 107.003C84.9959 107.229 85.1786 107.411 85.4039 107.411Z" fill="white"/>
<path d="M83.2611 107.411C83.4864 107.411 83.669 107.229 83.669 107.003C83.669 106.778 83.4864 106.596 83.2611 106.596C83.0358 106.596 82.8532 106.778 82.8532 107.003C82.8532 107.229 83.0358 107.411 83.2611 107.411Z" fill="white"/>
<path d="M81.1228 107.411C81.3481 107.411 81.5307 107.229 81.5307 107.003C81.5307 106.778 81.3481 106.596 81.1228 106.596C80.8975 106.596 80.7148 106.778 80.7148 107.003C80.7148 107.229 80.8975 107.411 81.1228 107.411Z" fill="white"/>
<path d="M58.7331 111.162H52.9844C52.6702 111.162 52.417 110.909 52.417 110.595C52.417 110.281 52.6702 110.028 52.9844 110.028H58.7331C59.0472 110.028 59.3005 110.281 59.3005 110.595C59.3005 110.909 59.0472 111.162 58.7331 111.162Z" fill="#6589D1"/>
<path d="M58.7331 113.784H52.9844C52.6702 113.784 52.417 113.53 52.417 113.216C52.417 112.902 52.6702 112.649 52.9844 112.649H58.7331C59.0472 112.649 59.3005 112.902 59.3005 113.216C59.3005 113.53 59.0472 113.784 58.7331 113.784Z" fill="#6589D1"/>
<path d="M58.7331 116.4H52.9844C52.6702 116.4 52.417 116.147 52.417 115.833C52.417 115.519 52.6702 115.266 52.9844 115.266H58.7331C59.0472 115.266 59.3005 115.519 59.3005 115.833C59.3005 116.147 59.0472 116.4 58.7331 116.4Z" fill="#6589D1"/>
<path d="M58.7331 119.016H52.9844C52.6702 119.016 52.417 118.763 52.417 118.449C52.417 118.135 52.6702 117.882 52.9844 117.882H58.7331C59.0472 117.882 59.3005 118.135 59.3005 118.449C59.3005 118.763 59.0472 119.016 58.7331 119.016Z" fill="#6589D1"/>
<path d="M58.7331 121.638H52.9844C52.6702 121.638 52.417 121.385 52.417 121.071C52.417 120.756 52.6702 120.503 52.9844 120.503H58.7331C59.0472 120.503 59.3005 120.756 59.3005 121.071C59.3005 121.385 59.0472 121.638 58.7331 121.638Z" fill="#6589D1"/>
<path d="M58.7331 124.254H52.9844C52.6702 124.254 52.417 124.001 52.417 123.687C52.417 123.373 52.6702 123.119 52.9844 123.119H58.7331C59.0472 123.119 59.3005 123.373 59.3005 123.687C59.3005 124.001 59.0472 124.254 58.7331 124.254Z" fill="#6589D1"/>
<path d="M85.7322 111.162H60.9603C60.6462 111.162 60.393 110.909 60.393 110.595C60.393 110.281 60.6462 110.028 60.9603 110.028H85.7322C86.0463 110.028 86.2995 110.281 86.2995 110.595C86.2995 110.909 86.0463 111.162 85.7322 111.162Z" fill="#3B5FB7"/>
<path d="M85.7322 113.784H60.9603C60.6462 113.784 60.393 113.53 60.393 113.216C60.393 112.902 60.6462 112.649 60.9603 112.649H85.7322C86.0463 112.649 86.2995 112.902 86.2995 113.216C86.2995 113.53 86.0463 113.784 85.7322 113.784Z" fill="#3B5FB7"/>
<path d="M85.7322 116.4H60.9603C60.6462 116.4 60.393 116.147 60.393 115.833C60.393 115.519 60.6462 115.266 60.9603 115.266H85.7322C86.0463 115.266 86.2995 115.519 86.2995 115.833C86.2995 116.147 86.0463 116.4 85.7322 116.4Z" fill="#3B5FB7"/>
<path d="M85.7322 119.016H60.9603C60.6462 119.016 60.393 118.763 60.393 118.449C60.393 118.135 60.6462 117.882 60.9603 117.882H85.7322C86.0463 117.882 86.2995 118.135 86.2995 118.449C86.2995 118.763 86.0463 119.016 85.7322 119.016Z" fill="#3B5FB7"/>
<path d="M85.7322 121.638H60.9603C60.6462 121.638 60.393 121.385 60.393 121.071C60.393 120.756 60.6462 120.503 60.9603 120.503H85.7322C86.0463 120.503 86.2995 120.756 86.2995 121.071C86.2995 121.385 86.0463 121.638 85.7322 121.638Z" fill="#3B5FB7"/>
<path d="M85.7322 124.254H60.9603C60.6462 124.254 60.393 124.001 60.393 123.687C60.393 123.373 60.6462 123.119 60.9603 123.119H85.7322C86.0463 123.119 86.2995 123.373 86.2995 123.687C86.2995 124.001 86.0463 124.254 85.7322 124.254Z" fill="#3B5FB7"/>
<path d="M259.653 19.1943C261.614 11.007 256.566 2.78005 248.379 0.818973C240.192 -1.1421 231.965 3.90527 230.004 12.0926C228.042 20.28 233.09 28.507 241.277 30.468C249.465 32.4291 257.692 27.3817 259.653 19.1943Z" stroke="#DEE3FC" stroke-width="0.79" stroke-miterlimit="10"/>
<path d="M250.198 27.7576C256.89 24.7961 259.915 16.9702 256.953 10.2778C253.992 3.58539 246.166 0.560874 239.474 3.52234C232.781 6.4838 229.757 14.3098 232.718 21.0022C235.68 27.6946 243.506 30.7191 250.198 27.7576Z" fill="#3945BA"/>
<path d="M246.043 15.6482C246.043 16.3141 245.504 16.8533 244.838 16.8533C244.173 16.8533 243.633 16.3141 243.633 15.6482C243.633 14.9824 244.173 14.4432 244.838 14.4432C245.504 14.4432 246.043 14.9824 246.043 15.6482Z" fill="white"/>
<path d="M244.707 15.4093C244.524 15.5124 244.294 15.4468 244.196 15.2639L240.299 8.23512C240.196 8.05225 240.262 7.82249 240.445 7.72402C240.628 7.62087 240.857 7.68651 240.956 7.86938L244.852 14.8982C244.956 15.081 244.89 15.3108 244.707 15.4093Z" fill="white"/>
<path d="M245.031 15.8404C245.176 15.6951 245.415 15.6951 245.565 15.8404L248.936 19.2118C249.082 19.3572 249.082 19.5963 248.936 19.7463C248.791 19.8917 248.552 19.8917 248.402 19.7463L245.031 16.375C244.885 16.2296 244.885 15.9905 245.031 15.8404Z" fill="white"/>
<path d="M244.923 5.04188V3.51796" stroke="white" stroke-width="2" stroke-miterlimit="10" stroke-linecap="round"/>
<path d="M255.445 15.728H256.968" stroke="white" stroke-width="2" stroke-miterlimit="10" stroke-linecap="round"/>
<path d="M244.758 26.2549V27.7788" stroke="white" stroke-width="2" stroke-miterlimit="10" stroke-linecap="round"/>
<path d="M234.232 15.5688H232.708" stroke="white" stroke-width="2" stroke-miterlimit="10" stroke-linecap="round"/>
<g opacity="0.5">
<path d="M239.606 6.42066L238.846 5.10306" stroke="#DEE3FC" stroke-miterlimit="10" stroke-linecap="round"/>
<path d="M254.066 10.4156L255.384 9.65603" stroke="#DEE3FC" stroke-miterlimit="10" stroke-linecap="round"/>
<path d="M250.071 24.8765L250.836 26.1941" stroke="#DEE3FC" stroke-miterlimit="10" stroke-linecap="round"/>
<path d="M235.615 20.8815L234.293 21.6458" stroke="#DEE3FC" stroke-miterlimit="10" stroke-linecap="round"/>
</g>
<g opacity="0.5">
<path d="M235.695 10.2751L234.373 9.51545" stroke="#DEE3FC" stroke-miterlimit="10" stroke-linecap="round"/>
<path d="M250.212 6.50519L250.976 5.1829" stroke="#DEE3FC" stroke-miterlimit="10" stroke-linecap="round"/>
<path d="M253.982 21.0221L255.304 21.7817" stroke="#DEE3FC" stroke-miterlimit="10" stroke-linecap="round"/>
<path d="M239.465 24.7918L238.705 26.1141" stroke="#DEE3FC" stroke-miterlimit="10" stroke-linecap="round"/>
</g>
<path d="M63.7455 66.641H47.0105C44.5322 66.641 42.5232 68.65 42.5232 71.1283V87.8633C42.5232 90.3416 44.5322 92.3506 47.0105 92.3506H63.7455C66.2238 92.3506 68.2328 90.3416 68.2328 87.8633V71.1283C68.2328 68.65 66.2238 66.641 63.7455 66.641Z" fill="#193091"/>
<path d="M62.6435 64.4137H44.1268C42.1405 64.4137 40.5303 66.0239 40.5303 68.0102V86.5269C40.5303 88.5132 42.1405 90.1234 44.1268 90.1234H62.6435C64.6298 90.1234 66.24 88.5132 66.24 86.5269V68.0102C66.24 66.0239 64.6298 64.4137 62.6435 64.4137Z" fill="#7E89FD" stroke="#DEE3FC" stroke-miterlimit="10"/>
<path d="M57.8372 74.3261H57.7012V72.8537C57.7012 70.4342 55.7366 68.4695 53.317 68.4695C50.8975 68.4695 48.9329 70.4342 48.9329 72.8537V74.3261H48.9047C48.2248 74.3261 47.6762 74.8747 47.6762 75.5546V81.1063C47.6762 81.7862 48.2248 82.3348 48.9047 82.3348H57.8372C58.5171 82.3348 59.0657 81.7862 59.0657 81.1063V75.5546C59.0657 74.8747 58.5171 74.3261 57.8372 74.3261ZM50.0441 72.8537C50.0441 71.0485 51.5118 69.5808 53.317 69.5808C55.1223 69.5808 56.59 71.0485 56.59 72.8537V74.3261H50.0441V72.8537Z" fill="#DEE3FC"/>
<path d="M54.8174 77.1772C54.8174 76.291 54.0109 75.5924 53.0918 75.7752C52.5526 75.8831 52.1025 76.3285 51.9899 76.8678C51.8539 77.5195 52.1634 78.115 52.6651 78.4104C52.7683 78.4714 52.8246 78.5839 52.7964 78.6965L52.5479 79.6155C52.3979 80.1594 52.8105 80.6987 53.3779 80.6987C53.9452 80.6987 54.3532 80.1594 54.2078 79.6155L53.964 78.7059C53.9312 78.5886 53.9921 78.4761 54.0953 78.4151C54.5267 78.1713 54.8221 77.7071 54.8221 77.1726L54.8174 77.1772Z" fill="#7E89FD"/>
<path d="M58.5405 84.2809H48.206C47.9153 84.2809 47.6809 84.0465 47.6809 83.7557C47.6809 83.465 47.9153 83.2306 48.206 83.2306H58.5405C58.8312 83.2306 59.0657 83.465 59.0657 83.7557C59.0657 84.0465 58.8312 84.2809 58.5405 84.2809Z" fill="#DEE3FC"/>
<path d="M58.5405 86.0722H48.206C47.9153 86.0722 47.6809 85.8378 47.6809 85.5471C47.6809 85.2563 47.9153 85.0219 48.206 85.0219H58.5405C58.8312 85.0219 59.0657 85.2563 59.0657 85.5471C59.0657 85.8378 58.8312 86.0722 58.5405 86.0722Z" fill="#DEE3FC"/>
<path d="M256.42 107.439H266.272C267.73 107.439 268.911 108.621 268.911 110.079V119.931C268.911 121.389 267.73 122.571 266.272 122.571H256.42C254.962 122.571 253.78 121.389 253.78 119.931V110.079C253.78 108.621 254.962 107.439 256.42 107.439Z" fill="#193091"/>
<path d="M265.625 106.127H254.718C253.55 106.127 252.603 107.074 252.603 108.241V119.148C252.603 120.316 253.55 121.263 254.718 121.263H265.625C266.792 121.263 267.739 120.316 267.739 119.148V108.241C267.739 107.074 266.792 106.127 265.625 106.127Z" fill="#7E89FD" stroke="#DEE3FC" stroke-miterlimit="10"/>
<path d="M257.114 118.215C257.072 118.215 257.03 118.21 256.987 118.196C256.739 118.126 256.594 117.868 256.664 117.619L258.952 109.517C259.022 109.268 259.285 109.123 259.529 109.193C259.777 109.264 259.923 109.521 259.852 109.77L257.564 117.872C257.508 118.079 257.316 118.215 257.114 118.215Z" fill="white"/>
<path d="M260.94 118.215C260.898 118.215 260.856 118.21 260.814 118.196C260.565 118.126 260.42 117.868 260.49 117.619L262.778 109.517C262.849 109.268 263.111 109.123 263.355 109.193C263.604 109.264 263.749 109.521 263.679 109.77L261.39 117.872C261.334 118.079 261.142 118.215 260.94 118.215Z" fill="white"/>
<path d="M264.222 112.325H256.12C255.862 112.325 255.651 112.114 255.651 111.856C255.651 111.599 255.862 111.388 256.12 111.388H264.222C264.48 111.388 264.691 111.599 264.691 111.856C264.691 112.114 264.48 112.325 264.222 112.325Z" fill="white"/>
<path d="M264.222 116.03H256.12C255.862 116.03 255.651 115.819 255.651 115.561C255.651 115.303 255.862 115.092 256.12 115.092H264.222C264.48 115.092 264.691 115.303 264.691 115.561C264.691 115.819 264.48 116.03 264.222 116.03Z" fill="white"/>
<path d="M83.5422 74.4949H77.681C77.3247 74.4949 77.0386 74.2089 77.0386 73.8525C77.0386 73.4961 77.3247 73.2101 77.681 73.2101H83.5422C83.8986 73.2101 84.1846 73.4961 84.1846 73.8525C84.1846 74.2089 83.8986 74.4949 83.5422 74.4949Z" fill="#F0F4FF"/>
<path d="M89.4457 77.3457H77.681C77.3247 77.3457 77.0386 77.0597 77.0386 76.7033C77.0386 76.347 77.3247 76.0609 77.681 76.0609H89.4457C89.802 76.0609 90.088 76.347 90.088 76.7033C90.088 77.0597 89.802 77.3457 89.4457 77.3457Z" fill="#F0F4FF"/>
<path d="M79.069 80.1965H77.681C77.3247 80.1965 77.0386 79.9105 77.0386 79.5541C77.0386 79.1978 77.3247 78.9117 77.681 78.9117H79.069C79.4253 78.9117 79.7113 79.1978 79.7113 79.5541C79.7113 79.9105 79.4253 80.1965 79.069 80.1965Z" fill="#F0F4FF"/>
<path d="M89.4457 80.1965H81.2541C80.8977 80.1965 80.6117 79.9105 80.6117 79.5541C80.6117 79.1978 80.8977 78.9117 81.2541 78.9117H89.4457C89.8021 78.9117 90.0881 79.1978 90.0881 79.5541C90.0881 79.9105 89.8021 80.1965 89.4457 80.1965Z" fill="#F0F4FF"/>
<path d="M89.4456 74.4949H85.8913C85.535 74.4949 85.2489 74.2089 85.2489 73.8525C85.2489 73.4961 85.535 73.2101 85.8913 73.2101H89.4456C89.8019 73.2101 90.088 73.4961 90.088 73.8525C90.088 74.2089 89.8019 74.4949 89.4456 74.4949Z" fill="#F0F4FF"/>
<path d="M56.3978 162.141C55.6335 162.141 54.9208 162.352 54.3065 162.713C54.0627 160.524 52.2059 158.826 49.9505 158.826C47.531 158.826 45.5663 160.786 45.5663 163.21C45.5663 163.374 45.5757 163.534 45.5944 163.689C45.3928 163.651 45.1865 163.632 44.9755 163.632C43.128 163.632 41.6275 165.133 41.6275 166.98C41.6275 168.828 43.128 170.328 44.9755 170.328H56.3978C58.6579 170.328 60.4913 168.495 60.4913 166.235C60.4913 163.975 58.6579 162.141 56.3978 162.141Z" fill="white"/>
<path d="M27.354 144.572C27.2415 143.958 27.2602 143.334 27.4103 142.734C27.926 140.718 28.5169 136.92 27.2039 132.821C25.0142 125.98 16.138 119.927 16.138 119.927C16.138 119.927 18.5481 130.017 20.5268 134.317C21.9757 137.464 24.5125 141.046 25.9239 142.931C26.313 143.456 26.5803 144.056 26.6975 144.699C28.1324 152.642 27.926 158.789 27.9214 158.883L28.5872 158.911C28.5872 158.817 28.8029 152.604 27.3493 144.577L27.354 144.572Z" fill="#DEE3FC"/>
<path d="M34.4296 138.139C36.1927 132.564 37.0132 125.994 37.0132 125.994C37.0132 125.994 29.0561 132.564 28.3996 137.642C28.001 140.755 28.4981 143.25 28.9435 144.722C29.1311 145.346 29.2014 145.997 29.1311 146.645C28.3246 154.123 28.9576 159.853 28.967 159.942L29.5672 159.872C29.5578 159.788 28.9717 154.456 29.6609 147.39C29.7547 146.424 30.1439 145.51 30.7582 144.75C31.8976 143.343 33.5246 140.994 34.4296 138.134V138.139Z" fill="#B4C1EF"/>
<path d="M42.523 125.737C42.523 125.737 33.9469 128.92 31.7055 135.921C30.341 140.183 30.9834 144.122 31.518 146.162C31.668 146.734 31.6586 147.334 31.518 147.906C29.5111 155.966 29.4783 164.308 29.4783 164.416H30.1629C30.1629 164.308 30.1957 156.163 32.1322 148.262C32.3245 147.479 32.6668 146.739 33.1497 146.091C34.6127 144.122 37.1025 140.577 38.5421 137.45C40.5724 133.051 42.523 125.737 42.523 125.737Z" fill="#DEE3FC"/>
<path d="M27.3916 155.286C27.1806 152.356 26.3788 149.716 25.4129 147.503C25.2206 147.057 25.1503 146.574 25.2113 146.096C25.3332 145.172 25.3801 143.733 25.0096 141.909C24.3157 138.472 19.7533 131.049 13.1512 130.613C13.1512 130.613 15.4301 134.275 16.6023 137.342C18.084 141.219 20.2034 145.275 23.7155 146.832C24.3344 147.104 24.8174 147.62 25.0753 148.243C25.9193 150.297 26.5992 152.693 26.7915 155.333L27.3916 155.291V155.286Z" fill="#B4C1EF"/>
<path d="M22.923 170.324H33.8201L36.6476 153.045C36.7742 152.281 36.1834 151.587 35.4097 151.587H21.3381C20.5644 151.587 19.9736 152.281 20.1002 153.045L22.9277 170.324H22.923Z" fill="#DEE3FC"/>
<path d="M0.556693 170.324H305.443" stroke="white" stroke-width="1.11" stroke-miterlimit="10" stroke-linecap="round"/>
</svg>
