<svg width="51" height="58" viewBox="0 0 51 58" fill="none" xmlns="http://www.w3.org/2000/svg">
<path d="M25.4964 57.9951H25.4892C24.6769 57.9951 23.9173 57.7752 23.2655 57.3885L23.287 57.4006L16.2492 53.2024C15.1996 52.6079 15.7124 52.4 16.0575 52.2768C17.1963 51.9207 18.2851 51.4187 19.2972 50.7831L19.2397 50.817C19.3236 50.7784 19.4159 50.7621 19.5077 50.7697C19.5996 50.7773 19.688 50.8086 19.7645 50.8605L19.7621 50.8581L25.1681 54.0943C25.2691 54.1489 25.3821 54.1773 25.4967 54.1769C25.6113 54.1764 25.7241 54.1472 25.8247 54.0919L25.8199 54.0943L46.8928 41.8237C46.9905 41.7635 47.0714 41.679 47.1276 41.5783C47.1838 41.4776 47.2135 41.3641 47.2139 41.2485V16.7195C47.213 16.6032 47.1825 16.489 47.1255 16.3879C47.0684 16.2868 46.9867 16.2021 46.888 16.1419L46.8856 16.1395L25.8199 3.88103C25.7202 3.82485 25.6079 3.79556 25.4937 3.79599C25.3795 3.79641 25.2674 3.82653 25.1681 3.88344L25.1705 3.88103L4.10962 16.1419C4.0091 16.2013 3.92556 16.2859 3.86718 16.3876C3.8088 16.4893 3.77757 16.6045 3.77654 16.7219V41.2509C3.77654 41.495 3.90833 41.7053 4.10483 41.8165L4.10722 41.8189L9.88225 45.1832C13.0142 46.7639 14.9312 44.9029 14.9312 43.0346V18.8126C14.9312 18.4742 15.2044 18.1987 15.5399 18.1987H18.2213C18.5568 18.1987 18.83 18.4718 18.83 18.8126V43.0346C18.83 47.2521 16.5535 49.6714 12.59 49.6714L12.4319 49.6738C10.7593 49.6765 9.11931 49.2077 7.69685 48.3203L2.20937 45.1349C1.53709 44.7394 0.979319 44.1732 0.591662 43.4926C0.204005 42.8119 5.61092e-06 42.0407 0 41.2558V16.7219C0.00239628 15.0785 0.881831 13.6452 2.1902 12.867L2.21177 12.8549L23.287 0.572308C23.9697 0.194794 24.7362 -0.00209638 25.5147 1.68328e-05C26.2933 0.00213004 27.0586 0.203178 27.7393 0.584392L27.7154 0.572308L48.7882 12.8549C50.1182 13.6452 50.9952 15.0785 51 16.7219V41.2534C50.9991 42.0345 50.7965 42.802 50.412 43.48C50.0275 44.1581 49.4745 44.7235 48.8074 45.1204L48.7858 45.1325L27.7178 57.4054C27.0467 57.7979 26.2841 58.0032 25.5084 58H25.4916L25.4964 57.9951Z" fill="white"/>
<path d="M32.0067 41.0985C22.7858 41.0985 20.8521 36.8302 20.8521 33.246V33.2436C20.8521 32.9052 21.1228 32.6321 21.4583 32.6321H24.1901C24.4944 32.6321 24.746 32.8569 24.7939 33.1493C25.2037 35.9481 26.4306 37.362 32.0067 37.362C36.447 37.362 38.3329 36.3493 38.3329 33.9735C38.3329 32.6031 37.7985 31.588 30.8996 30.9064C25.1342 30.3264 21.5685 29.0454 21.5685 24.3929C21.5685 20.1054 25.1534 17.5459 31.1537 17.5459C37.9064 17.5459 41.2468 19.9096 41.6685 24.9802L41.6709 25.0334C41.6709 25.1962 41.6068 25.3524 41.4927 25.4675C41.3785 25.5826 41.2237 25.6473 41.0623 25.6473H38.3473C38.2098 25.6468 38.0765 25.5991 37.9694 25.5122C37.8623 25.4252 37.7877 25.3041 37.7578 25.1688V25.1639C37.1012 22.2202 35.5053 21.28 31.1776 21.28C26.3299 21.28 25.7668 22.9839 25.7668 24.2576C25.7668 25.8044 26.433 26.2539 32.9772 27.1264C39.452 27.9917 42.5288 29.2122 42.5288 33.8019C42.5192 38.4399 38.6923 41.0936 32.0139 41.0936L32.0067 41.0985Z" fill="white"/>
</svg>
