<svg width="72" height="39" viewBox="0 0 72 39" fill="none" xmlns="http://www.w3.org/2000/svg">
<path d="M9.81819 39C7.09092 39 4.77165 38.051 2.86038 36.153C0.949104 34.255 -0.00434872 31.954 1.49099e-05 29.25V22.75H9.81819V29.25H19.6364V2.24914e-05H29.4545V29.25C29.4545 31.9583 28.4989 34.2615 26.5876 36.1595C24.6764 38.0575 22.3593 39.0043 19.6364 39H9.81819ZM45.8182 39C43.9636 39 42.408 38.376 41.1513 37.128C39.8945 35.88 39.2684 34.3373 39.2727 32.5V26H49.0909V29.25H62.1818V22.75H45.8182C43.9636 22.75 42.408 22.126 41.1513 20.878C39.8945 19.63 39.2684 18.0873 39.2727 16.25V6.50001C39.2727 4.65835 39.9011 3.11352 41.1578 1.86552C42.4145 0.61752 43.968 -0.00431084 45.8182 2.24914e-05H65.4545C67.3091 2.24914e-05 68.8647 0.624022 70.1214 1.87202C71.3782 3.12002 72.0043 4.66268 72 6.50001V13H62.1818V9.75001H49.0909V16.25H65.4545C67.3091 16.25 68.8647 16.874 70.1214 18.122C71.3782 19.37 72.0043 20.9127 72 22.75V32.5C72 34.3416 71.3716 35.8865 70.1149 37.1345C68.8582 38.3825 67.3047 39.0043 65.4545 39H45.8182Z" fill="white"/>
</svg>
