<svg width="15" height="9" viewBox="0 0 15 9" fill="none" xmlns="http://www.w3.org/2000/svg">
<path d="M0 0H14.6842V8.99998H0V0Z" fill="white"/>
<path d="M0 0H14.6842V1.18421H0V0ZM0 2.13158H14.6842V3.07894H0V2.13158ZM0 4.02631H14.6842V4.97368H0V4.02631Z" fill="#D22F27"/>
<path d="M0 0H7.57893V4.97368H0V0Z" fill="#1E50A0"/>
<path d="M0 5.92117H14.6842V6.86854H0V5.92117Z" fill="#D22F27"/>
<path d="M1.06506 1.59878C1.29397 1.59878 1.47954 1.41321 1.47954 1.1843C1.47954 0.955398 1.29397 0.769832 1.06506 0.769832C0.836156 0.769832 0.65059 0.955398 0.65059 1.1843C0.65059 1.41321 0.836156 1.59878 1.06506 1.59878Z" fill="white"/>
<path d="M2.96096 1.59878C3.18986 1.59878 3.37543 1.41321 3.37543 1.1843C3.37543 0.955398 3.18986 0.769832 2.96096 0.769832C2.73205 0.769832 2.54648 0.955398 2.54648 1.1843C2.54648 1.41321 2.73205 1.59878 2.96096 1.59878Z" fill="white"/>
<path d="M4.85585 1.59878C5.08476 1.59878 5.27032 1.41321 5.27032 1.1843C5.27032 0.955398 5.08476 0.769832 4.85585 0.769832C4.62694 0.769832 4.44138 0.955398 4.44138 1.1843C4.44138 1.41321 4.62694 1.59878 4.85585 1.59878Z" fill="white"/>
<path d="M6.74875 1.59878C6.97766 1.59878 7.16322 1.41321 7.16322 1.1843C7.16322 0.955398 6.97766 0.769832 6.74875 0.769832C6.51984 0.769832 6.33428 0.955398 6.33428 1.1843C6.33428 1.41321 6.51984 1.59878 6.74875 1.59878Z" fill="white"/>
<path d="M5.8028 2.54623C6.03171 2.54623 6.21727 2.36066 6.21727 2.13175C6.21727 1.90285 6.03171 1.71728 5.8028 1.71728C5.57389 1.71728 5.38833 1.90285 5.38833 2.13175C5.38833 2.36066 5.57389 2.54623 5.8028 2.54623Z" fill="white"/>
<path d="M3.90691 2.54623C4.13581 2.54623 4.32138 2.36066 4.32138 2.13175C4.32138 1.90285 4.13581 1.71728 3.90691 1.71728C3.678 1.71728 3.49243 1.90285 3.49243 2.13175C3.49243 2.36066 3.678 2.54623 3.90691 2.54623Z" fill="white"/>
<path d="M2.01401 2.54623C2.24291 2.54623 2.42848 2.36066 2.42848 2.13175C2.42848 1.90285 2.24291 1.71728 2.01401 1.71728C1.7851 1.71728 1.59953 1.90285 1.59953 2.13175C1.59953 2.36066 1.7851 2.54623 2.01401 2.54623Z" fill="white"/>
<path d="M1.06506 3.49317C1.29397 3.49317 1.47954 3.30761 1.47954 3.0787C1.47954 2.84979 1.29397 2.66423 1.06506 2.66423C0.836156 2.66423 0.65059 2.84979 0.65059 3.0787C0.65059 3.30761 0.836156 3.49317 1.06506 3.49317Z" fill="white"/>
<path d="M2.96096 3.49317C3.18986 3.49317 3.37543 3.30761 3.37543 3.0787C3.37543 2.84979 3.18986 2.66423 2.96096 2.66423C2.73205 2.66423 2.54648 2.84979 2.54648 3.0787C2.54648 3.30761 2.73205 3.49317 2.96096 3.49317Z" fill="white"/>
<path d="M4.85585 3.49317C5.08476 3.49317 5.27032 3.30761 5.27032 3.0787C5.27032 2.84979 5.08476 2.66423 4.85585 2.66423C4.62694 2.66423 4.44138 2.84979 4.44138 3.0787C4.44138 3.30761 4.62694 3.49317 4.85585 3.49317Z" fill="white"/>
<path d="M6.74875 3.49317C6.97766 3.49317 7.16322 3.30761 7.16322 3.0787C7.16322 2.84979 6.97766 2.66423 6.74875 2.66423C6.51984 2.66423 6.33428 2.84979 6.33428 3.0787C6.33428 3.30761 6.51984 3.49317 6.74875 3.49317Z" fill="white"/>
<path d="M5.8028 4.44062C6.03171 4.44062 6.21727 4.25505 6.21727 4.02615C6.21727 3.79724 6.03171 3.61167 5.8028 3.61167C5.57389 3.61167 5.38833 3.79724 5.38833 4.02615C5.38833 4.25505 5.57389 4.44062 5.8028 4.44062Z" fill="white"/>
<path d="M3.90691 4.44062C4.13581 4.44062 4.32138 4.25505 4.32138 4.02615C4.32138 3.79724 4.13581 3.61167 3.90691 3.61167C3.678 3.61167 3.49243 3.79724 3.49243 4.02615C3.49243 4.25505 3.678 4.44062 3.90691 4.44062Z" fill="white"/>
<path d="M2.01401 4.44062C2.24291 4.44062 2.42848 4.25505 2.42848 4.02615C2.42848 3.79724 2.24291 3.61167 2.01401 3.61167C1.7851 3.61167 1.59953 3.79724 1.59953 4.02615C1.59953 4.25505 1.7851 4.44062 2.01401 4.44062Z" fill="white"/>
<path d="M0 7.81557H14.6842V8.99977H0V7.81557Z" fill="#D22F27"/>
</svg>
